<svg version="1.1" xmlns="http://www.w3.org/2000/svg" xmlns:xlink="http://www.w3.org/1999/xlink" x="0px" y="0px" viewBox="0 0 40 40" style="enable-background:new 0 0 40 40;" xml:space="preserve">
	<g id="path-3_2_" class="st3">
		<path class="st0" d="M5,39.5c-2.5,0-4.5-2-4.5-4.5V5c0-2.5,2-4.5,4.5-4.5h30c2.5,0,4.5,2,4.5,4.5v30c0,2.5-2,4.5-4.5,4.5H5z"/>
		<path class="st1" d="M35,1c2.2,0,4,1.8,4,4v30c0,2.2-1.8,4-4,4H5c-2.2,0-4-1.8-4-4V5c0-2.2,1.8-4,4-4H35 M35,0H5C2.2,0,0,2.2,0,5
			v30c0,2.8,2.2,5,5,5h30c2.8,0,5-2.2,5-5V5C40,2.2,37.8,0,35,0L35,0z"/>
	</g>
	<g class="st3">
		<path class="st1" d="M27.1,16c-0.3-2.7-0.8-4.2-1.7-4.9c-0.8-0.6-1.8-0.3-2.3-0.2c-1.7,0.5-2.7,0.5-3.1,0.5s-1.5,0-3.1-0.5
			c-0.5-0.2-1.5-0.4-2.3,0.2c-0.9,0.6-1.4,2.1-1.7,4.9c-5.4,1.1-8.8,3.5-8.8,6.1c0,1.9,1.7,3.7,4.8,4.9c3,1.2,6.9,1.9,11.1,1.9
			s8.1-0.7,11.1-1.9c3.1-1.3,4.8-3,4.8-4.9C35.9,19.4,32.5,17.1,27.1,16z M20,27.9c-4,0-7.8-0.6-10.7-1.8c-2.7-1.1-4.2-2.5-4.2-4
			c0-2,3-4,7.6-5c0,0.5-0.1,1-0.1,1.5v2c0,1.9,3.1,3.3,7.3,3.3s7.3-1.4,7.3-3.3v-2.1c0-0.5,0-1-0.1-1.5c4.6,1,7.6,3,7.6,5
			c0,1.5-1.5,2.9-4.2,4C27.8,27.2,24,27.9,20,27.9z M20,20.8c-4,0-6.2-1.3-6.2-2.2c0.1-3.8,0.6-6,1.4-6.6v0c0.1-0.1,0.3-0.2,0.5-0.2
			c0.2,0,0.5,0.1,0.9,0.2c1.8,0.5,2.9,0.5,3.4,0.5s1.6,0,3.4-0.5c0.7-0.2,1.1-0.2,1.4,0c0.8,0.6,1.3,2.8,1.4,6.6
			C26.2,19.5,24,20.8,20,20.8z M26.2,20.6c0,0.9-2.2,2.3-6.2,2.3s-6.2-1.3-6.2-2.3v-0.3c1.3,1,3.6,1.5,6.2,1.5s5-0.6,6.2-1.5V20.6z"
			/>
		<path class="st1" d="M22.2,13c-2.2,1.2-4.4,0-4.5,0c-0.3-0.1-0.6-0.1-0.7,0.2C17,13.4,17,13.5,17,13.6c0,0.1,0.1,0.2,0.2,0.3
			c0,0,1.2,0.7,2.8,0.7c0.9,0,1.8-0.2,2.7-0.7c0.1-0.1,0.2-0.2,0.2-0.3c0-0.1,0-0.3,0-0.4C22.8,13,22.5,12.9,22.2,13z"/>
	</g>
</svg>
