<svg version="1.1" xmlns="http://www.w3.org/2000/svg" xmlns:xlink="http://www.w3.org/1999/xlink" x="0px" y="0px" viewBox="0 0 40 40" style="enable-background:new 0 0 40 40;" xml:space="preserve">

	<g id="path-3_28_" class="st3">
		<path class="st0" d="M5,39.5c-2.5,0-4.5-2-4.5-4.5V5c0-2.5,2-4.5,4.5-4.5h30c2.5,0,4.5,2,4.5,4.5v30c0,2.5-2,4.5-4.5,4.5H5z"/>
		<path class="st1" d="M35,1c2.2,0,4,1.8,4,4v30c0,2.2-1.8,4-4,4H5c-2.2,0-4-1.8-4-4V5c0-2.2,1.8-4,4-4H35 M35,0H5C2.2,0,0,2.2,0,5
			v30c0,2.8,2.2,5,5,5h30c2.8,0,5-2.2,5-5V5C40,2.2,37.8,0,35,0L35,0z"/>
	</g>
	<path class="st4" d="M36.2,12.7l0-0.4l-0.4-0.1c0,0-0.4-0.1-1-0.3c0.1-0.3,0.2-0.6,0.3-1c0.3-1.6-0.1-2.4-0.6-2.8
		c-1.3-1.1-3.5-1.3-4.3-1.3c-0.7,0-3.6,0.3-4.5,0.5c-1.1,0.3-3.2,1.3-3,3.1c0.1,0.5,0.2,1.2,0.3,1.7c-0.1,0-0.1,0-0.2,0.1
		c-0.7,0.3-1,0.4-2.6,0.4s-1.9-0.1-2.6-0.4c-0.1,0-0.1,0-0.2-0.1c0.1-0.5,0.2-1.2,0.3-1.7c0.2-1.9-1.9-2.9-3-3.1
		C13.6,7,10.6,6.7,9.9,6.8C9.1,6.8,6.9,7,5.6,8c-0.5,0.4-1,1.2-0.6,2.8c0.1,0.4,0.2,0.7,0.3,1c-0.6,0.2-1,0.3-1,0.3l-0.4,0.1l0,0.4
		c0,0.1-0.1,2.9,0.7,5.7c0.4,1.4,1.4,2.3,3.1,2.8c1.3,0.4,2.6,0.4,3.3,0.4l0.1,0c0.1,0,0.2,0,0.3,0c0.2,0,0.5,0,0.9,0
		c1.4,0,2.5-0.3,3.5-1c-0.2,0.5-0.4,1-0.5,1.2c-0.1,0.2-0.2,0.5-0.4,0.8c-0.5,0.9-1.1,2-0.9,3.1c-0.6,0.5-1.9,1.8-2.5,4.2l-0.1,0.3
		l0.2,0.3c0.1,0.1,1.9,2,8.1,2.2v0l0.2,0l0.2,0v0c6.2-0.1,8-2.1,8.1-2.2l0.2-0.3L28.5,30c-0.6-2.4-1.9-3.6-2.5-4.2
		c0.2-1.1-0.4-2.2-0.9-3.1c-0.1-0.3-0.3-0.5-0.4-0.8c-0.1-0.3-0.3-0.7-0.5-1.2c1,0.7,2.2,1,3.5,1c0.3,0,0.6,0,0.9,0
		c0.1,0,0.2,0,0.3,0l0.1,0c1.4,0,5.6-0.1,6.5-3.2C36.3,15.6,36.2,12.9,36.2,12.7z M30,8C30,8,30,8,30,8c0.8,0,2.6,0.2,3.6,1
		c0.5,0.4,0.3,1.5-0.1,2.5c-2-0.5-4.9-0.9-7.5-0.4c-0.7,0.2-1.4,0.3-1.9,0.5c-0.1-0.5-0.2-1-0.2-1.4c-0.1-1,1.6-1.6,2-1.7
		C26.6,8.3,29.3,8,30,8z M26.2,12.4c3.3-0.7,7.3,0.4,8.7,0.9c0,0.9-0.1,2.9-0.6,4.8c-0.6,2.2-4,2.3-5.3,2.3l-0.1,0
		c-0.1,0-0.2,0-0.3,0c-1.5,0.1-5.5,0.4-6.4-6.8c0.3-0.1,0.6-0.2,0.9-0.3C23.6,13.1,24.4,12.8,26.2,12.4z M25.9,30.5
		C25.9,30.5,25.9,30.5,25.9,30.5l-1.4-3c0.2-0.1,0.3-0.2,0.5-0.4c0.1-0.1,0.2-0.1,0.3-0.2c0.5,0.4,1.3,1.3,1.8,3
		C26.9,30.1,26.5,30.3,25.9,30.5z M12.9,29.9c0.5-1.6,1.3-2.5,1.8-2.9c0.1,0.1,0.2,0.2,0.3,0.2c0.3,0.2,0.5,0.4,0.8,0.5l-1.1,3
		C13.7,30.4,13.1,30.1,12.9,29.9z M22.7,28.8L22.7,28.8c0.4-0.5,0.5-0.6,0.7-0.7l1.2,2.8c-0.6,0.2-1.3,0.3-2,0.4l-0.6-2
		C22.4,29.1,22.6,28.8,22.7,28.8z M16.9,28.3c0.1,0.1,0.3,0.2,0.4,0.5l0,0.1c0.1,0.1,0.3,0.3,0.8,0.6l-0.4,2
		c-0.7-0.1-1.3-0.2-1.9-0.3L16.9,28.3z M19.4,29.7c0.5,0.1,0.9,0,1.4,0l0.5,1.7c-0.4,0-0.9,0-1.3,0c-0.3,0-0.6,0-0.9,0L19.4,29.7z
		 M24.3,26.1c-0.6,0.4-0.9,0.5-1.2,0.7c-0.5,0.2-0.9,0.4-1.4,1.1c-0.1,0.1-0.6,0.6-1.7,0.6c-1.1,0-1.7-0.5-1.7-0.5
		c-0.6-0.8-0.9-0.9-1.4-1.1c-0.3-0.1-0.6-0.2-1.2-0.7C15,25.6,15.1,25,16,23.3c0.2-0.3,0.3-0.6,0.4-0.9c0.7-1.5,2-5.5,2-5.7
		c0.3-0.9,0.5-1.9,0.6-3c0.5,0,1.3,0,1.8,0c0.1,1.1,0.3,2.1,0.6,3c0,0,1.3,4.2,2,5.7c0.1,0.3,0.3,0.6,0.4,0.9
		C24.9,25,25,25.6,24.3,26.1z M13.8,12.4c1.8,0.4,2.6,0.7,3.2,0.9c0.3,0.1,0.6,0.2,0.9,0.3c-0.9,7.2-4.9,6.9-6.4,6.8
		c-0.1,0-0.3,0-0.3,0l-0.1,0c-1.3,0-4.6-0.1-5.3-2.3c-0.6-2-0.6-3.9-0.6-4.8C6.5,12.8,10.5,11.7,13.8,12.4z M14.1,8.5
		c0.5,0.1,2.1,0.7,2,1.7c0,0.4-0.1,0.9-0.2,1.4c-0.6-0.2-1.2-0.3-1.9-0.5c-0.9-0.2-1.7-0.3-2.6-0.3c-1.8,0-3.5,0.3-4.9,0.6
		C6.1,10.5,6,9.4,6.4,9c1-0.8,2.8-1,3.6-1C10.6,8,13.4,8.3,14.1,8.5z"/>
</svg>
