<svg version="1.1" xmlns="http://www.w3.org/2000/svg" xmlns:xlink="http://www.w3.org/1999/xlink" x="0px" y="0px" viewBox="0 0 40 40" style="enable-background:new 0 0 40 40;" xml:space="preserve">
	<g id="path-3_18_" class="st3">
		<path class="st0" d="M5,39.5c-2.5,0-4.5-2-4.5-4.5V5c0-2.5,2-4.5,4.5-4.5h30c2.5,0,4.5,2,4.5,4.5v30c0,2.5-2,4.5-4.5,4.5H5z"/>
		<path class="st1" d="M35,1c2.2,0,4,1.8,4,4v30c0,2.2-1.8,4-4,4H5c-2.2,0-4-1.8-4-4V5c0-2.2,1.8-4,4-4H35 M35,0H5C2.2,0,0,2.2,0,5
			v30c0,2.8,2.2,5,5,5h30c2.8,0,5-2.2,5-5V5C40,2.2,37.8,0,35,0L35,0z"/>
	</g>
	<g class="st3">
		<path class="st1" d="M30.3,17.8c1.2,0,2.1-0.4,2.2-0.4c0.1-0.1,0.2-0.2,0.3-0.3s0-0.3,0-0.4c-0.1-0.1-0.2-0.2-0.3-0.3
			c-0.1-0.1-0.3,0-0.4,0c0,0-0.7,0.3-1.6,0.3c0,0-0.1,0-0.1,0c-1.1,0-2-0.5-2.6-1.5c-0.1-0.1-0.2-0.2-0.3-0.2c-0.1,0-0.3,0-0.4,0.1
			c-0.1,0.1-0.2,0.2-0.2,0.3c0,0.1,0,0.3,0.1,0.4C27.6,17.1,28.8,17.8,30.3,17.8z"/>
		<path class="st1" d="M13.1,21.7c0.2-0.2,0.2-0.6,0-0.8c-1.1-1-2.2-1.5-3.2-1.3c-1.7,0.3-2.7,1.9-2.7,2C7,21.8,7,21.9,7,22.1
			s0.1,0.3,0.3,0.3c0.1,0,0.2,0.1,0.3,0.1c0.2,0,0.4-0.1,0.5-0.3c0,0,0.8-1.3,2-1.5c0.7-0.1,1.5,0.2,2.4,1
			C12.6,21.9,12.9,21.9,13.1,21.7z M12.9,21.5L12.9,21.5L12.9,21.5L12.9,21.5z"/>
		<path class="st1" d="M17.8,18.7L17.8,18.7c-1.7,0.3-2.7,1.9-2.7,2c-0.1,0.3-0.1,0.6,0.2,0.7c0.1,0,0.2,0.1,0.3,0.1
			c0.2,0,0.4-0.1,0.5-0.3c0,0,0.8-1.3,2-1.5c0.7-0.1,1.5,0.2,2.4,1c0.1,0.1,0.2,0.2,0.4,0.1c0.1,0,0.3-0.1,0.4-0.2
			c0.1-0.1,0.2-0.2,0.1-0.4c0-0.1-0.1-0.3-0.2-0.4C20,19,18.9,18.5,17.8,18.7z"/>
		<path class="st1" d="M17.6,27.2c-0.1,0-0.3,0-0.4,0.1c-0.1,0.1-2,1.6-4.6,0.5c-0.1-0.1-0.3-0.1-0.4,0c-0.1,0.1-0.2,0.2-0.3,0.3
			c-0.1,0.1-0.1,0.3,0,0.4s0.2,0.2,0.3,0.3c0.7,0.3,1.5,0.5,2.3,0.5c2,0,3.4-1.1,3.4-1.2c0.1-0.1,0.2-0.2,0.2-0.4
			c0-0.1,0-0.3-0.1-0.4C17.8,27.3,17.7,27.2,17.6,27.2z"/>
		<path class="st1" d="M34.7,9.6c-0.1-0.2-0.3-0.4-0.6-0.4c-3.6,0.6-6.5-0.4-6.5-0.4l-0.1,0c-0.1,0-3-0.6-5.9-2.9
			c-0.2-0.2-0.5-0.2-0.7,0c0,0-0.6,0.5-1.4,1.7c-0.7,1-1.7,2.6-2.5,5c-2.1,0.8-3.7,0.8-3.7,0.8l-0.1,0c0,0-3,0.5-6.5-0.5
			c-0.2-0.1-0.5,0-0.6,0.3C6,13.4,4.2,16.9,5,23.2c0.5,3.9,2.9,6.7,4.4,8c2,1.8,4.2,3,5.9,3c0.1,0,0.3,0,0.4,0
			c2-0.2,4.5-2.4,6.1-5.4c0.2,0.1,0.4,0.1,0.5,0.2c1.6,0.4,4.3-0.4,6.6-2c1.6-1.1,4.5-3.5,5.4-7.4C36,13.4,34.8,9.8,34.7,9.6z
			 M21,27.9c-1.7,3.2-4.1,5-5.5,5.2c-1.4,0.2-3.6-0.9-5.5-2.7c-1.3-1.2-3.6-3.8-4-7.4c-0.6-4.7,0.4-7.8,0.8-8.9
			c3.4,0.9,6.2,0.5,6.5,0.4c0.3,0,2-0.2,4.3-1c0.7-0.3,1.4-0.6,2-0.9c0.2,0.3,0.6,0.9,1,1.8c0.6,1.3,1.4,3.6,1.8,6.7
			C22.8,23.9,21.8,26.3,21,27.9z M26.4,24.1L26.4,24.1L26.4,24.1L26.4,24.1z M23.6,23.4c0.8,0.2,1.6,0.6,2.2,1.2
			c0.2,0.2,0.6,0.2,0.8,0c0.2-0.2,0.2-0.5,0-0.8c-0.8-0.8-1.8-1.3-2.9-1.6c0-0.5,0-1-0.1-1.4c-0.2-1.9-0.7-3.7-1.2-5.3
			c0.2,0,0.4,0,0.6,0c1,0,1.7-0.3,1.8-0.4c0.3-0.1,0.4-0.4,0.3-0.7c-0.1-0.3-0.4-0.4-0.7-0.3c0,0-1.1,0.5-2.4,0.1
			c-0.8-1.9-1.6-2.8-1.7-2.9c-0.2-0.2-0.5-0.2-0.7-0.1c-0.4,0.2-0.7,0.4-1.1,0.6c1.1-2.8,2.4-4.4,3-5c2.9,2.1,5.6,2.7,5.9,2.8
			c0.3,0.1,3,0.9,6.5,0.5c0.3,1.1,0.8,4.3-0.4,8.9c-1.5,5.7-8.1,9.3-10.8,8.6c-0.1,0-0.2,0-0.2-0.1C23,26.4,23.4,24.9,23.6,23.4z"/>
	</g>
</svg>
