<svg version="1.1" xmlns="http://www.w3.org/2000/svg" xmlns:xlink="http://www.w3.org/1999/xlink" x="0px" y="0px"
	 viewBox="0 0 40 40" style="enable-background:new 0 0 40 40;" xml:space="preserve">
	<g id="path-3_14_" class="st3">
		<path class="st0" d="M5,39.5c-2.5,0-4.5-2-4.5-4.5V5c0-2.5,2-4.5,4.5-4.5h30c2.5,0,4.5,2,4.5,4.5v30c0,2.5-2,4.5-4.5,4.5H5z"/>
		<path class="st1" d="M35,1c2.2,0,4,1.8,4,4v30c0,2.2-1.8,4-4,4H5c-2.2,0-4-1.8-4-4V5c0-2.2,1.8-4,4-4H35 M35,0H5C2.2,0,0,2.2,0,5
			v30c0,2.8,2.2,5,5,5h30c2.8,0,5-2.2,5-5V5C40,2.2,37.8,0,35,0L35,0z"/>
	</g>
	<path class="st4" d="M29.8,34.1L19.1,13.3l2.8,0.4c0.2,0,0.4-0.1,0.5-0.2c0.1-0.2,0.1-0.4-0.1-0.5l-2.9-2.9l1.8-3.6
		c0.1-0.2,0.1-0.4-0.1-0.5c-0.1-0.1-0.4-0.2-0.5-0.1L17,7.7l-2.9-2.9c-0.1-0.1-0.4-0.2-0.5-0.1c-0.2,0.1-0.3,0.3-0.2,0.5l0.7,4
		l-3.6,1.9c-0.2,0.1-0.3,0.3-0.2,0.5c0,0.2,0.2,0.4,0.4,0.4l4,0.6l0.7,4c0,0.2,0.2,0.4,0.4,0.4l0.1,0c0.2,0,0.3-0.1,0.4-0.3l1.3-2.5
		L28,35c0.1,0.1,0.2,0.2,0.3,0.2c0,0,0.1,0,0.1,0c0.1,0,0.1,0,0.2-0.1l1-0.5c0.1-0.1,0.2-0.2,0.2-0.3C29.9,34.3,29.9,34.2,29.8,34.1
		z M15,11.8l-2.9-0.5l2.6-1.4C14.9,9.9,15,9.7,15,9.5l-0.5-2.9l2.1,2.1c0.1,0.1,0.4,0.2,0.5,0.1l2.6-1.4L18.4,10
		c-0.1,0.2-0.1,0.4,0.1,0.5l2.1,2.1l-2.9-0.5c-0.2,0-0.4,0.1-0.5,0.2l-1.3,2.7l-0.5-2.9C15.4,12,15.2,11.8,15,11.8z M17.9,13.2
		L17.9,13.2l10.9,20.9l-0.1,0.1L17.9,13.2L17.9,13.2z"/>
</svg>
