<?xml version="1.0" encoding="utf-8"?>
<!-- Generator: Adobe Illustrator 21.0.0, SVG Export Plug-In . SVG Version: 6.00 Build 0)  -->
<svg version="1.1" xmlns="http://www.w3.org/2000/svg" xmlns:xlink="http://www.w3.org/1999/xlink" x="0px" y="0px"
	 viewBox="0 0 40 40" style="enable-background:new 0 0 40 40;" xml:space="preserve">
<style type="text/css">
	.st0{fill:#FFFFFF;}
	.st1{fill:#000000;}
	.st2{display:none;}
	.st3{display:inline;}
	.st4{display:inline;fill:#000000;}
</style>
<g id="Future">
	<g id="path-3_20_" class="st3">
		<path class="st0" d="M5,39.5c-2.5,0-4.5-2-4.5-4.5V5c0-2.5,2-4.5,4.5-4.5h30c2.5,0,4.5,2,4.5,4.5v30c0,2.5-2,4.5-4.5,4.5H5z"/>
		<path class="st1" d="M35,1c2.2,0,4,1.8,4,4v30c0,2.2-1.8,4-4,4H5c-2.2,0-4-1.8-4-4V5c0-2.2,1.8-4,4-4H35 M35,0H5C2.2,0,0,2.2,0,5
			v30c0,2.8,2.2,5,5,5h30c2.8,0,5-2.2,5-5V5C40,2.2,37.8,0,35,0L35,0z"/>
	</g>
	<g class="st3">
		<path class="st1" d="M16.3,32.7c-0.3-0.2-0.7-0.1-0.9,0.2l-1.3,2c-0.2,0.3-0.1,0.7,0.2,0.9c0.1,0.1,0.2,0.1,0.3,0.1
			c0.2,0,0.4-0.1,0.5-0.3l1.3-2c0.1-0.1,0.1-0.3,0.1-0.5C16.5,32.9,16.4,32.7,16.3,32.7z"/>
		<path class="st1" d="M25.8,13.8c-1.5-1-3.6-0.6-4.6,1c-1,1.5-0.6,3.6,1,4.6c0.5,0.4,1.2,0.5,1.8,0.5c0.2,0,0.5,0,0.7-0.1
			c0.9-0.2,1.6-0.7,2.1-1.4C27.7,16.9,27.3,14.8,25.8,13.8z M25.7,17.7c-0.3,0.5-0.8,0.8-1.3,0.9c-0.5,0.1-1.1,0-1.6-0.3
			C22.3,18,22,17.6,21.9,17c-0.1-0.5,0-1.1,0.3-1.6c0.4-0.6,1-0.9,1.8-0.9c0.4,0,0.8,0.1,1.1,0.3C26.1,15.5,26.3,16.8,25.7,17.7z"/>
		<path class="st1" d="M32.5,4.3c-0.1-0.3-0.3-0.4-0.6-0.4c-0.3,0-7.8,0.7-12.1,7c-1.2,1.7-2.4,3.9-3.6,6.6c-0.9,0-2.8,0.2-4.4,2.1
			c-1.9,2.2-4.8,6.2-4.8,6.2c-0.1,0.2-0.2,0.4-0.1,0.6c0.1,0.2,0.3,0.3,0.5,0.4l4.8,0.7c-0.2,0.7-0.4,1.1-0.4,1.2
			c-0.1,0.3,0,0.6,0.2,0.7l0.3,0.2c-0.2,0-0.5,0.1-0.6,0.3l-1.3,2c-0.2,0.3-0.1,0.7,0.2,0.9c0.1,0.1,0.2,0.1,0.3,0.1
			c0.2,0,0.4-0.1,0.5-0.3l1.3-2c0.1-0.2,0.1-0.5,0-0.7l1.7,1.1c-0.1,0-0.2-0.1-0.3,0c-0.2,0-0.3,0.1-0.4,0.3L11.1,35
			C11,35.1,11,35.3,11,35.4c0,0.2,0.1,0.3,0.3,0.4c0.1,0.1,0.2,0.1,0.3,0.1c0.2,0,0.4-0.1,0.5-0.3l2.5-3.8c0.1-0.1,0.1-0.3,0.1-0.5
			c0-0.1-0.1-0.2-0.2-0.3l2.4,1.6c0.2,0.2,0.5,0.1,0.7,0c0,0,0.4-0.3,0.9-0.8l2.5,4.2c0.1,0.2,0.3,0.3,0.5,0.3
			c0.2,0,0.4-0.1,0.5-0.3c0.4-0.7,2.6-4.5,3.8-6.8c1.1-2.2,0.5-4,0.2-4.8c2-2.2,3.6-4.2,4.6-6C34.9,11.7,32.6,4.6,32.5,4.3z
			 M25.3,25.2c0.2,0.7,0.3,1.9-0.3,3.3c-0.9,1.8-2.4,4.5-3.2,5.9l-2.1-3.5C21.1,29.5,23.2,27.5,25.3,25.2z M23.8,8.4
			c3-2.3,6.4-3,7.7-3.2c0.3,1.2,1,4.6,0.1,8.3c-1.6-0.2-3.1-0.8-4.4-1.7C25.7,10.9,24.6,9.8,23.8,8.4z M31.2,14.7
			c-0.3,1-0.8,2-1.4,2.9c-3.4,5.5-10.7,12.1-12.5,13.7L13,28.5c0.8-2.3,4-11.6,7.7-16.9c0.6-0.9,1.3-1.7,2.1-2.4
			c0.9,1.4,2.1,2.6,3.6,3.6C27.9,13.8,29.5,14.4,31.2,14.7z M8.5,25.7c1-1.3,2.8-3.7,4.1-5.3c1-1.2,2.1-1.5,2.9-1.6
			c-1.2,2.8-2.3,5.5-2.9,7.4L8.5,25.7z"/>
	</g>
</g>
</svg>
