<?xml version="1.0" encoding="utf-8"?>
<!-- Generator: Adobe Illustrator 21.0.0, SVG Export Plug-In . SVG Version: 6.00 Build 0)  -->
<svg version="1.1" xmlns="http://www.w3.org/2000/svg" xmlns:xlink="http://www.w3.org/1999/xlink" x="0px" y="0px"
	 viewBox="0 0 40 40" style="enable-background:new 0 0 40 40;" xml:space="preserve">
<style type="text/css">
	.st0{fill:#FFFFFF;}
	.st1{fill:#000000;}
	.st2{display:none;}
	.st3{display:inline;}
	.st4{display:inline;fill:#000000;}
</style>
<g id="Gangster">
	<g id="path-3_10_" class="st3">
		<path class="st0" d="M5,39.5c-2.5,0-4.5-2-4.5-4.5V5c0-2.5,2-4.5,4.5-4.5h30c2.5,0,4.5,2,4.5,4.5v30c0,2.5-2,4.5-4.5,4.5H5z"/>
		<path class="st1" d="M35,1c2.2,0,4,1.8,4,4v30c0,2.2-1.8,4-4,4H5c-2.2,0-4-1.8-4-4V5c0-2.2,1.8-4,4-4H35 M35,0H5C2.2,0,0,2.2,0,5
			v30c0,2.8,2.2,5,5,5h30c2.8,0,5-2.2,5-5V5C40,2.2,37.8,0,35,0L35,0z"/>
	</g>
	<path class="st4" d="M33.3,9l-1.1-2.1c-0.1-0.3-0.5-0.4-0.7-0.2L30.8,7l-0.2-0.3c-0.1-0.1-0.2-0.2-0.3-0.3c-0.1,0-0.3,0-0.4,0
		c-0.3,0.1-0.4,0.5-0.2,0.7l0.2,0.3l-11.7,6.2l0-0.1c-0.1-0.3-0.5-0.4-0.7-0.2l-1.8,0.9l-0.1-0.2c-0.1-0.1-0.2-0.2-0.3-0.3
		c-0.1,0-0.3,0-0.4,0L10,16.5c-0.8,0.4-1.4,1.2-1.7,2c-0.2-0.1-0.5-0.2-0.8-0.5c-0.1-0.1-0.2-0.2-0.4-0.2c-0.1,0-0.3,0-0.4,0.1
		c-0.2,0.2-0.2,0.5-0.1,0.7c0.5,0.5,1,0.8,1.4,0.9c0,0.6,0.1,1.1,0.4,1.6c-0.2,0.5-0.7,1.6-0.9,3.3c-0.3,2-0.1,5.1,1.8,8.7
		c0.1,0.2,0.3,0.3,0.5,0.3c0.1,0,0.2,0,0.2-0.1l4.7-2.5c0.1-0.1,0.3-0.2,0.3-0.4c0-0.2,0-0.3-0.2-0.5c0,0-1.1-1-1.8-2.5
		c-0.5-1-0.7-2-0.6-2.9c0.4,0,1.1-0.2,1.7-0.5c0.3-0.2,0.6-0.4,0.8-0.6c0.6-0.6,0.9-1.4,0.9-2.3l2-1.1c0.3-0.1,0.4-0.5,0.2-0.7
		l0-0.1l1.8-0.9c0.2-0.1,0.3-0.2,0.3-0.4l9.2-4.9c0.3-0.1,0.4-0.5,0.2-0.7l-0.4-0.7l3.7-2C33.4,9.5,33.5,9.2,33.3,9z M8.7,24.6
		c0.1-1.1,0.4-1.9,0.6-2.4c0.7,0.7,1.7,1,2.7,0.9c-0.1,0.3-0.2,0.6-0.3,0.9c0,0,0,0.1,0,0.1c-0.3,1.2-0.1,2.5,0.6,3.9
		c0.5,1,1.1,1.8,1.5,2.3l-3.6,1.9C8.5,29.1,8.4,26.4,8.7,24.6z M13.4,23.4c-0.2,0.1-0.3,0.1-0.5,0.1c0-0.1,0.1-0.2,0.1-0.2
		C13.1,23.4,13.2,23.4,13.4,23.4z M13.9,22.4l1-0.5c-0.1,0.4-0.3,0.7-0.5,1c0,0-0.1,0.1-0.1,0.1c0,0,0-0.1,0-0.1
		c0-0.1-0.1-0.3-0.2-0.3C14,22.4,14,22.4,13.9,22.4z M9.5,20.8c-0.3-0.6-0.4-1.2-0.2-1.9c0.2-0.6,0.6-1.1,1.2-1.5l4.3-2.3l0.6,1
		l-2.6,1.4c-0.1,0.1-0.2,0.2-0.3,0.3c0,0.1,0,0.3,0,0.4c0.1,0.1,0.2,0.2,0.3,0.3c0.1,0,0.3,0,0.4,0l2.6-1.4l1.3,2.4l-4.3,2.3
		C11.6,22.4,10.1,22,9.5,20.8z M17.8,18.5l-1.7-3.2l1.3-0.7l1.7,3.2L17.8,18.5z M19.3,15.8l-0.6-1.2l12.9-6.9L32.1,9L19.3,15.8z
		 M31.6,6.8L31.6,6.8L31.6,6.8L31.6,6.8z"/>
</g>
</svg>
