<?xml version="1.0" encoding="utf-8"?>
<!-- Generator: Adobe Illustrator 21.0.0, SVG Export Plug-In . SVG Version: 6.00 Build 0)  -->
<svg version="1.1" xmlns="http://www.w3.org/2000/svg" xmlns:xlink="http://www.w3.org/1999/xlink" x="0px" y="0px"
	 viewBox="0 0 40 40" style="enable-background:new 0 0 40 40;" xml:space="preserve">
<style type="text/css">
	.st0{fill:#FFFFFF;}
	.st1{fill:#000000;}
	.st2{display:none;}
	.st3{display:inline;}
	.st4{display:inline;fill:#000000;}
</style>
<g id="Gore">
	<g id="path-3_4_" class="st3">
		<path class="st0" d="M5,39.5c-2.5,0-4.5-2-4.5-4.5V5c0-2.5,2-4.5,4.5-4.5h30c2.5,0,4.5,2,4.5,4.5v30c0,2.5-2,4.5-4.5,4.5H5z"/>
		<path class="st1" d="M35,1c2.2,0,4,1.8,4,4v30c0,2.2-1.8,4-4,4H5c-2.2,0-4-1.8-4-4V5c0-2.2,1.8-4,4-4H35 M35,0H5C2.2,0,0,2.2,0,5
			v30c0,2.8,2.2,5,5,5h30c2.8,0,5-2.2,5-5V5C40,2.2,37.8,0,35,0L35,0z"/>
	</g>
	<path class="st4" d="M33.8,9.1c-0.1-0.3-0.3-0.4-0.6-0.4c-0.6,0-1.4,0-2.3-0.1c-1.6-0.2-2.6-0.4-3.4-0.6L27,7.9
		c-1-0.2-1.8-0.4-2.3-0.6C24.2,7,20,4.5,18.6,3.7c-0.5-0.3-1-0.4-1.5-0.3c-0.6,0.2-0.8,0.6-0.9,0.7c-0.2,0.3-1.9,3.2-2.2,4
		c-0.2,0.6,0,1.2,0.5,1.6c0.1,0.1,0.2,0.2,0.3,0.2c-0.2,0.9-0.7,3-1,4.2c-0.2,0.7-1,1.9-2,3.4c-1,1.5-2.1,3.2-3,4.9
		c-1.7,3.4-2.8,6.9-2.7,8.9c0,1,0.3,1.7,0.9,2.1c0.2,0.1,0.3,0.2,0.5,0.3C7.8,33.9,8.1,34,8.3,34c0.2,0,0.4,0,0.6-0.1
		c0.1,0,0.2,0,0.4,0c0.9-0.1,2.2-0.2,2.6-3.5c0.4-3.3,2.6-7.5,4-9.5c1.9-2.7,3.5-5.2,4.5-7.5c0.3,0.1,0.4,0.2,0.6,0.3
		c0,0,0.1,0,0.1,0l0.1,0.1c0.1,0.1,0.4,0.3,0.6,0.4c0.3,0.3,2.6,3.4,3.3,5.1c0.4,1.1,0.7,2,0.8,2.2c0.1,0.2,0.2,0.3,0.4,0.4
		c0.2,0.1,0.4,0,0.5-0.1c2.3-1.8,5.4-4.8,6.6-8.7C34.1,10.7,33.8,9.1,33.8,9.1z M31.2,11.1c0-0.1,0-0.2,0.1-0.3l0.1-0.7l0-0.1l0-0.4
		c0.5,0,0.9,0.1,1.3,0.1c0,0.6,0,1.7-0.5,3.1c-1.1,3.3-3.6,5.9-5.6,7.6c-0.1-0.3-0.2-0.7-0.4-1.2l1.4-1.5l1.5-1.9l0.1-0.1l1.2-2.1
		c0.1-0.1,0.1-0.3,0.2-0.4c0-0.1,0.1-0.2,0.1-0.4l0-0.1L31.2,11.1L31.2,11.1z M30.3,9.6c0,0.1,0,0.1,0,0.2L30,11.5
		c0,0.1-0.1,0.2-0.1,0.3l0,0.1c0,0.1-0.1,0.2-0.1,0.4c0,0.1-0.1,0.2-0.1,0.3l-0.5,1l-1.4,2.2l0,0.1l-0.2,0.3L25.9,18l-0.1,0.1
		l-0.1,0.1c-1-2-3-4.6-3.2-4.7c-0.2-0.3-0.6-0.5-0.8-0.6l-0.1-0.1c-0.1-0.1-0.2-0.1-0.3-0.1c-0.2-0.1-0.4-0.2-1-0.5l-4.6-2.8l-0.1,0
		c-0.3-0.1-0.8-0.4-0.7-0.7c0.2-0.7,1.6-3,2.2-3.9c0,0,0.1-0.2,0.2-0.2c0.1,0,0.2,0,0.3,0c0.1,0,0.2,0.1,0.3,0.1
		c1,0.6,5.6,3.4,6.2,3.6c0.6,0.3,1.5,0.4,2.5,0.7L27.3,9C28,9.2,29,9.4,30.3,9.6L30.3,9.6z M30.6,9.4L30.6,9.4L30.6,9.4L30.6,9.4z
		 M31.2,9.8L31.2,9.8L31.2,9.8L31.2,9.8z M31.1,10L31.1,10L31.1,10C31.1,10,31.1,10,31.1,10z M14.9,14.5c0.3-1.1,0.7-2.9,1-3.9
		l3.6,2.2c-1,2.3-2.5,4.8-4.5,7.4c-1.4,1.9-3.7,6.3-4.2,10c-0.3,2.5-0.9,2.5-1.6,2.6c-0.2,0-0.3,0-0.5,0.1c-0.2,0-0.6,0.1-0.9-0.1
		c-0.3-0.2-0.5-0.7-0.5-1.3c-0.1-1.8,1-5.2,2.6-8.4c0.8-1.6,1.9-3.3,2.9-4.7C13.8,16.7,14.6,15.4,14.9,14.5z M26.6,21.6L26.6,21.6
		L26.6,21.6L26.6,21.6z"/>
</g>
</svg>
