<?xml version="1.0" encoding="utf-8"?>
<!-- Generator: Adobe Illustrator 21.0.0, SVG Export Plug-In . SVG Version: 6.00 Build 0)  -->
<svg version="1.1" xmlns="http://www.w3.org/2000/svg" xmlns:xlink="http://www.w3.org/1999/xlink" x="0px" y="0px"
	 viewBox="0 0 40 40" style="enable-background:new 0 0 40 40;" xml:space="preserve">
<style type="text/css">
	.st0{fill:#FFFFFF;}
	.st1{fill:#000000;}
	.st2{display:none;}
	.st3{display:inline;}
	.st4{display:inline;fill:#000000;}
</style>
<g id="History">
	<g id="path-3_26_" class="st3">
		<path class="st0" d="M5,39.5c-2.5,0-4.5-2-4.5-4.5V5c0-2.5,2-4.5,4.5-4.5h30c2.5,0,4.5,2,4.5,4.5v30c0,2.5-2,4.5-4.5,4.5H5z"/>
		<path class="st1" d="M35,1c2.2,0,4,1.8,4,4v30c0,2.2-1.8,4-4,4H5c-2.2,0-4-1.8-4-4V5c0-2.2,1.8-4,4-4H35 M35,0H5C2.2,0,0,2.2,0,5
			v30c0,2.8,2.2,5,5,5h30c2.8,0,5-2.2,5-5V5C40,2.2,37.8,0,35,0L35,0z"/>
	</g>
	<g class="st3">
		<path class="st1" d="M22.3,25c0.1,0.1,0.2,0.2,0.4,0.2c0.1,0,0.1,0,0.2,0c0,0,0.1,0,0.1-0.1c0.1-0.1,0.2-0.2,0.2-0.3
			c0-0.1,0-0.3-0.1-0.4L12.7,10.5c-0.2-0.2-0.5-0.3-0.7-0.1c-0.2,0.2-0.3,0.5-0.1,0.7L22.3,25z"/>
		<path class="st1" d="M31.3,32.9l-3.8-5.1l1.1-0.8c0.5,0.2,1.1,0.1,1.6-0.2c0.8-0.6,0.9-1.6,0.4-2.4h0c-0.3-0.4-0.7-0.6-1.1-0.7
			c-0.5-0.1-0.9,0-1.3,0.3c-0.5,0.3-0.7,0.9-0.7,1.5l-1,0.8C24.7,23.9,13.9,9.3,13,8.2C12,6.8,9.3,6,9.2,6C9.1,6,8.9,6,8.8,6.1
			C8.7,6.2,8.6,6.3,8.6,6.5c0,0.3,0,2.9,1,4.3L23,28.8l-1,0.8c-0.5-0.2-1.1-0.1-1.6,0.2c-0.4,0.3-0.6,0.7-0.7,1.1
			c-0.1,0.5,0,0.9,0.3,1.3c0.4,0.6,1.3,0.8,2,0.6c0.2-0.1,0.3-0.1,0.4-0.2c0.5-0.3,0.7-0.9,0.7-1.5l1.1-0.8l3.8,5.1
			c0.1,0.1,0.2,0.2,0.4,0.2c0.1,0,0.1,0,0.2,0c0,0,0.1,0,0.1-0.1l2.5-1.9c0.1-0.1,0.2-0.2,0.2-0.3C31.4,33.1,31.4,33,31.3,32.9z
			 M30.2,33.1l-1.7,1.3l-0.7-1l1.7-1.3L30.2,33.1z M26.7,28.4l2.2,3l-1.7,1.3l-2.2-3L26.7,28.4z M28.5,25.5c-0.1-0.3,0-0.6,0.3-0.8
			c0.2-0.1,0.4-0.2,0.6-0.1c0.2,0,0.4,0.1,0.5,0.3c0.2,0.3,0.2,0.8-0.2,1c-0.2,0.2-0.6,0.2-0.8,0c-0.1,0-0.2-0.1-0.3-0.1
			c0,0-0.1,0-0.1,0C28.5,25.8,28.5,25.7,28.5,25.5z M22.1,31c0.1,0.3,0,0.6-0.3,0.8c-0.2,0.1-0.4,0.2-0.6,0.1
			c-0.2,0-0.4-0.1-0.5-0.3c-0.1-0.2-0.2-0.4-0.1-0.6c0-0.2,0.1-0.4,0.3-0.5c0.1,0,0.1-0.1,0.2-0.1c0.1,0,0.2,0,0.3,0
			c0.1,0,0.3,0,0.4,0.1c0.1,0.1,0.3,0.1,0.4,0.1C22.1,30.7,22.1,30.9,22.1,31z M12.3,8.7l13.4,18l-1.9,1.4l-13.4-18
			c-0.6-0.8-0.7-2.2-0.7-3C10.3,7.4,11.7,8,12.3,8.7z"/>
	</g>
</g>
</svg>
