<?xml version="1.0" encoding="utf-8"?>
<!-- Generator: Adobe Illustrator 21.0.0, SVG Export Plug-In . SVG Version: 6.00 Build 0)  -->
<svg version="1.1" xmlns="http://www.w3.org/2000/svg" xmlns:xlink="http://www.w3.org/1999/xlink" x="0px" y="0px"
	 viewBox="0 0 40 40" style="enable-background:new 0 0 40 40;" xml:space="preserve">
<style type="text/css">
	.st0{fill:#FFFFFF;}
	.st1{fill:#000000;}
	.st2{display:none;}
	.st3{display:inline;}
	.st4{display:inline;fill:#000000;}
</style>
<g id="Horror">
	<g id="path-3_8_" class="st3">
		<path class="st0" d="M5,39.5c-2.5,0-4.5-2-4.5-4.5V5c0-2.5,2-4.5,4.5-4.5h30c2.5,0,4.5,2,4.5,4.5v30c0,2.5-2,4.5-4.5,4.5H5z"/>
		<path class="st1" d="M35,1c2.2,0,4,1.8,4,4v30c0,2.2-1.8,4-4,4H5c-2.2,0-4-1.8-4-4V5c0-2.2,1.8-4,4-4H35 M35,0H5C2.2,0,0,2.2,0,5
			v30c0,2.8,2.2,5,5,5h30c2.8,0,5-2.2,5-5V5C40,2.2,37.8,0,35,0L35,0z"/>
	</g>
	<g class="st3">
		<path class="st1" d="M35,11.2c0-0.3-0.1-1.3-0.9-1.4c-0.7-0.1-1.4,0.7-2.3,2.6c0,0-1.5,3.4-3.6,3.7c-0.8,0.1-1.6-0.4-2.5-1.4
			c-3.3-4-5.3-4.2-5.9-4.1c-0.6-0.1-2.6,0.1-5.9,4.1c-0.8,1-1.6,1.5-2.5,1.4c-2-0.3-3.5-3.6-3.6-3.7c-0.8-1.9-1.6-2.7-2.3-2.6
			C5.1,9.9,5,10.9,5,11.2c0,0.2-0.4,2.3,0,5.3c0.4,2.9,1.5,7.1,4.7,11.3c0.1,0.1,1.3,1.6,3.1,3.2c2.5,2.1,5,3.2,7.2,3.2
			s4.7-1.1,7.2-3.2c1.9-1.6,3.1-3.1,3.1-3.2c3.2-4.1,4.3-8.4,4.7-11.3C35.4,13.5,35.1,11.5,35,11.2z M20,11.8l0.2,0
			c0,0,1.7-0.2,4.8,3.7c1.1,1.4,2.3,2,3.6,1.8c2.7-0.4,4.5-4.2,4.5-4.4c0.3-0.6,0.6-1.1,0.8-1.4l0,0c0,0.1,1.4,8.1-4.5,15.6
			c-0.1,0.1-4.7,5.9-9.4,5.9c-4.7,0-9.3-5.9-9.4-5.9c-5.8-7.4-4.5-15.5-4.5-15.6l0,0c0.2,0.3,0.5,0.8,0.8,1.4c0.1,0.2,1.8,4,4.5,4.4
			c1.3,0.2,2.5-0.4,3.6-1.8c3.1-3.8,4.8-3.7,4.7-3.7L20,11.8z"/>
		<path class="st1" d="M17.6,16.2c0,0.7,0.5,1.2,1.2,1.2h2.5c0.7,0,1.2-0.5,1.2-1.2S21.9,15,21.2,15h-2.5
			C18.1,15,17.6,15.5,17.6,16.2z"/>
		<path class="st1" d="M14.4,23.4v0.9c0,1.7,1.4,3.1,3.1,3.1h5.1c1.7,0,3.1-1.4,3.1-3.1v-0.9c0-1.7-1.4-3.1-3.1-3.1h-5.1
			C15.8,20.4,14.4,21.8,14.4,23.4z M17,21.7l-0.4,4.3c-0.6-0.3-1-0.9-1-1.6v-0.9C15.6,22.6,16.2,21.9,17,21.7z M19.4,21.6v4.6h-1.6
			l0.4-4.6H19.4z M22.2,26.2h-1.6v-4.6h1.2L22.2,26.2z M23,21.7c0.8,0.2,1.3,0.9,1.3,1.8v0.9c0,0.7-0.4,1.3-1,1.6L23,21.7z"/>
	</g>
</g>
</svg>
