<?xml version="1.0" encoding="utf-8"?>
<!-- Generator: Adobe Illustrator 21.0.0, SVG Export Plug-In . SVG Version: 6.00 Build 0)  -->
<svg version="1.1" xmlns="http://www.w3.org/2000/svg" xmlns:xlink="http://www.w3.org/1999/xlink" x="0px" y="0px"
	 viewBox="0 0 40 40" style="enable-background:new 0 0 40 40;" xml:space="preserve">
<style type="text/css">
	.st0{fill:#FFFFFF;}
	.st1{fill:#000000;}
	.st2{display:none;}
	.st3{display:inline;}
	.st4{display:inline;fill:#000000;}
</style>
<g id="Love">
	<g id="path-3_24_" class="st3">
		<path class="st0" d="M5,39.5c-2.5,0-4.5-2-4.5-4.5V5c0-2.5,2-4.5,4.5-4.5h30c2.5,0,4.5,2,4.5,4.5v30c0,2.5-2,4.5-4.5,4.5H5z"/>
		<path class="st1" d="M35,1c2.2,0,4,1.8,4,4v30c0,2.2-1.8,4-4,4H5c-2.2,0-4-1.8-4-4V5c0-2.2,1.8-4,4-4H35 M35,0H5C2.2,0,0,2.2,0,5
			v30c0,2.8,2.2,5,5,5h30c2.8,0,5-2.2,5-5V5C40,2.2,37.8,0,35,0L35,0z"/>
	</g>
	<g class="st3">
		<path class="st1" d="M36.2,18.7c0,0,0-0.1-0.1-0.2c0,0,0-0.1-0.1-0.1c0,0-0.1-0.1-0.1-0.1c0,0-0.1-0.1-0.1-0.1
			c-0.1,0-5.6-2.1-8.7-4.2c-3-2-6.1-0.7-7.1-0.2c-1.1-0.5-4.2-1.8-7.1,0.2c-3.1,2.1-8.6,4.2-8.7,4.2c0,0-0.1,0-0.2,0.1
			c0,0-0.1,0-0.1,0.1c0,0,0,0.1-0.1,0.1c0,0,0,0.1,0,0.2l0,0c0,0,0,0.1,0,0.2c0,0,0,0.1,0,0.1c0,0,0,0.1,0.1,0.1
			c0,0,0.1,0.1,0.1,0.1c0,0,2,1.7,5.6,5.2c3.6,3.6,9.7,3.7,10.4,3.7c0,0,0,0,0,0c0.3,0,1.8,0,3.8-0.4c2-0.4,4.7-1.3,6.6-3.2
			C34,21,36,19.3,36,19.3c0,0,0.1-0.1,0.1-0.1c0,0,0-0.1,0.1-0.1l0,0c0,0,0-0.1,0-0.1C36.2,18.8,36.2,18.7,36.2,18.7z M36,18.7
			L36,18.7L36,18.7L36,18.7z M6.7,18.5c2-0.8,4.9-2.2,6.9-3.5c2.8-1.9,6.1,0,6.1,0c0.2,0.1,0.5,0.1,0.7,0c0,0,3.3-1.9,6.1,0
			c2,1.4,4.9,2.7,6.8,3.5c-3.4,0.5-10,1.5-13.7,1.5C15.9,20,9.8,19.1,6.7,18.5z M33.6,19.7c-1,0.9-2.3,2.2-4,3.9
			c-1.7,1.7-4.2,2.5-6,2.9c-1.9,0.4-3.4,0.4-3.6,0.4c0,0-1.6,0-3.5-0.4c-1.8-0.4-4.3-1.2-6-2.9c-1.7-1.7-3-2.9-4-3.8
			c3.2,0.5,9.4,1.5,13.1,1.5C23.4,21.2,30.1,20.3,33.6,19.7z M4.1,18.5L4.1,18.5L4.1,18.5L4.1,18.5z"/>
		<path class="st1" d="M26.8,16.1c-2.4-1.5-4.6-0.6-4.7-0.6c-0.3,0.1-0.5,0.5-0.3,0.8c0.1,0.3,0.5,0.5,0.8,0.3c0,0,1.7-0.7,3.6,0.5
			c0.1,0.1,0.2,0.1,0.3,0.1c0.2,0,0.4-0.1,0.5-0.3C27.2,16.6,27.1,16.3,26.8,16.1z"/>
	</g>
</g>
</svg>
