<?xml version="1.0" encoding="utf-8"?>
<!-- Generator: Adobe Illustrator 21.0.0, SVG Export Plug-In . SVG Version: 6.00 Build 0)  -->
<svg version="1.1" xmlns="http://www.w3.org/2000/svg" xmlns:xlink="http://www.w3.org/1999/xlink" x="0px" y="0px"
	 viewBox="0 0 40 40" style="enable-background:new 0 0 40 40;" xml:space="preserve">
<style type="text/css">
	.st0{fill:#FFFFFF;}
	.st1{fill:#000000;}
	.st2{display:none;}
	.st3{display:inline;}
	.st4{display:inline;fill:#000000;}
</style>
<g id="Pirates">
	<g id="path-3_16_" class="st3">
		<path class="st0" d="M5,39.5c-2.5,0-4.5-2-4.5-4.5V5c0-2.5,2-4.5,4.5-4.5h30c2.5,0,4.5,2,4.5,4.5v30c0,2.5-2,4.5-4.5,4.5H5z"/>
		<path class="st1" d="M35,1c2.2,0,4,1.8,4,4v30c0,2.2-1.8,4-4,4H5c-2.2,0-4-1.8-4-4V5c0-2.2,1.8-4,4-4H35 M35,0H5C2.2,0,0,2.2,0,5
			v30c0,2.8,2.2,5,5,5h30c2.8,0,5-2.2,5-5V5C40,2.2,37.8,0,35,0L35,0z"/>
	</g>
	<path class="st4" d="M31.5,30.6l-1.3-3.7c-0.1-0.2-0.2-0.3-0.4-0.3c-0.2-0.1-0.4,0-0.5,0.1c-0.1,0-0.1,0.1-0.2,0.1
		c-0.5-1.2-1.1-2.2-2-3.1c-1.6-1.6-3.8-2.5-5.8-2.2l-1.1-3.1c3.3-1.9,4.8-5.8,3.5-9.4c-1.5-4-5.9-6.1-10-4.7c-1.9,0.7-3.5,2.1-4.4,4
		c-0.9,1.9-1,4-0.3,5.9c0.2,0.7,1,1,1.7,0.8c0.3-0.1,0.6-0.4,0.7-0.7c0.1-0.3,0.2-0.7,0-1c-0.5-1.3-0.4-2.7,0.2-4
		c0.6-1.3,1.6-2.2,2.9-2.7c1.3-0.5,2.7-0.4,4,0.2c1.3,0.6,2.2,1.6,2.7,2.9c1,2.7-0.4,5.7-3.1,6.6c-0.3,0.1-0.6,0.4-0.7,0.7
		s-0.2,0.7,0,1l1.5,4.3c-1.7,1.1-2.9,3.1-3.1,5.4c-0.1,1.2,0.1,2.5,0.5,3.7c-0.1,0-0.1,0-0.2,0c-0.2,0-0.3,0.1-0.4,0.3
		c-0.1,0.1-0.1,0.3-0.1,0.5l1.3,3.7c0.1,0.2,0.3,0.4,0.6,0.4c0,0,0,0,0,0c2.4-0.1,4.9-0.7,7.3-1.5c2.2-0.8,4.4-2,6.6-3.5
		C31.5,31.1,31.5,30.8,31.5,30.6z M22,14.2c0.7-1.5,0.8-3.2,0.2-4.8c-0.6-1.6-1.7-2.8-3.3-3.6c-0.8-0.4-1.7-0.6-2.7-0.6
		c-0.7,0-1.5,0.1-2.1,0.4c-1.6,0.6-2.8,1.7-3.6,3.3c-0.7,1.5-0.8,3.2-0.2,4.8c0,0,0,0.1,0,0.1c0,0-0.1,0.1-0.1,0.1c0,0-0.1,0-0.1,0
		c0,0-0.1-0.1-0.1-0.1c-0.6-1.7-0.5-3.5,0.2-5.1C11,7.1,12.4,5.9,14,5.3c1.7-0.6,3.5-0.5,5.1,0.2c1.6,0.8,2.8,2.1,3.4,3.7
		c1.2,3.2-0.3,6.8-3.4,8.2l-0.5,0.2l1.4,4c-0.1,0-0.1,0-0.2,0.1c-0.1,0-0.1,0-0.2,0.1l-1.5-4.1c0,0,0-0.1,0-0.1v0
		c0,0,0.1-0.1,0.1-0.1C20,16.9,21.3,15.7,22,14.2z M19.8,23.1c0.2-0.1,0.4-0.2,0.6-0.3c0.2-0.1,0.4-0.1,0.6-0.2
		c1.8-0.4,3.8,0.3,5.3,1.8c0.8,0.8,1.4,1.8,1.8,2.9c0,0,0,0,0,0.1c-0.3,0.2-0.6,0.4-0.9,0.6l-0.1,0c-1.4,0.8-2.8,1.5-4.2,2
		c-0.2,0.1-0.4,0.1-0.6,0.2c-1.2,0.4-2.5,0.7-3.8,0.9c-0.4,0.1-0.8,0.1-1.2,0.1c0,0,0-0.1,0-0.1c-0.4-1.1-0.6-2.2-0.5-3.3
		C17.1,25.7,18.1,23.9,19.8,23.1z M18.8,32.3c1.4-0.2,2.7-0.5,4-0.9c0.2-0.1,0.4-0.1,0.6-0.2c1.4-0.5,2.9-1.2,4.3-2.1
		c0.5-0.3,1.1-0.6,1.6-1l0.9,2.6c-2,1.4-4,2.4-5.9,3.1c-2.1,0.8-4.4,1.3-6.5,1.4l-0.9-2.6C17.5,32.4,18.1,32.4,18.8,32.3z"/>
</g>
</svg>
