<?xml version="1.0" encoding="utf-8"?>
<!-- Generator: Adobe Illustrator 21.0.0, SVG Export Plug-In . SVG Version: 6.00 Build 0)  -->
<svg version="1.1" xmlns="http://www.w3.org/2000/svg" xmlns:xlink="http://www.w3.org/1999/xlink" x="0px" y="0px"
	 viewBox="0 0 40 40" style="enable-background:new 0 0 40 40;" xml:space="preserve">
<style type="text/css">
	.st0{fill:#FFFFFF;}
	.st1{fill:#000000;}
	.st2{display:none;}
	.st3{display:inline;}
	.st4{display:inline;fill:#000000;}
</style>
<g id="RomanticComedy">
	<g id="path-3_22_" class="st3">
		<path class="st0" d="M5,39.5c-2.5,0-4.5-2-4.5-4.5V5c0-2.5,2-4.5,4.5-4.5h30c2.5,0,4.5,2,4.5,4.5v30c0,2.5-2,4.5-4.5,4.5H5z"/>
		<path class="st1" d="M35,1c2.2,0,4,1.8,4,4v30c0,2.2-1.8,4-4,4H5c-2.2,0-4-1.8-4-4V5c0-2.2,1.8-4,4-4H35 M35,0H5C2.2,0,0,2.2,0,5
			v30c0,2.8,2.2,5,5,5h30c2.8,0,5-2.2,5-5V5C40,2.2,37.8,0,35,0L35,0z"/>
	</g>
	<path class="st4" d="M36.2,12.8l-0.1-0.3l-2.7-1.7c-0.1-0.1-0.3-0.1-0.5-0.1c-0.2,0-0.3,0.1-0.4,0.3s-0.1,0.3-0.1,0.5
		c0,0.2,0.1,0.3,0.3,0.4l1.4,0.8l-3.7,1.6c0-0.5,0-1-0.1-1.5c-0.4-1.5-1.4-2.6-3.1-3.5c-4.2-2-7.2,1.4-8.2,3c-1.1-1.6-4.1-5-8.2-3
		c-1.7,0.8-2.7,2-3.1,3.5c-0.8,3.3,2.1,7.2,4,9.7l-2.9,1.2l-2.2-1.3c-0.3-0.2-0.7-0.1-0.8,0.2c-0.2,0.3-0.1,0.7,0.2,0.8l1.4,0.8
		l-0.6,0.3l-2.2-1.3c-0.1-0.1-0.3-0.1-0.5-0.1c-0.2,0-0.3,0.1-0.4,0.3c-0.1,0.1-0.1,0.3-0.1,0.5c0,0.2,0.1,0.3,0.3,0.4l2,1.2
		l-0.5,2.3c0,0.2,0,0.3,0.1,0.5s0.2,0.2,0.4,0.3c0.3,0.1,0.6-0.1,0.7-0.4l0.6-2.4L8,25.4L7.6,27c0,0.2,0,0.3,0.1,0.5
		c0.1,0.1,0.2,0.2,0.4,0.3c0.3,0.1,0.6-0.1,0.7-0.4l0.6-2.4l3.1-1.3c2.2,2.9,6.2,7,6.2,7c0.1,0.1,0.3,0.2,0.4,0.2
		c0.2,0,0.3-0.1,0.4-0.2c0,0,4.1-4.2,6.3-7.1c0.1-0.2,0.3-0.4,0.4-0.6l0.1-0.1c1.3-1.7,3.3-4.4,4-6.9l4.4-1.9l-0.4,1.6
		c-0.1,0.3,0.1,0.6,0.5,0.7c0.3,0.1,0.6-0.1,0.7-0.4l0.6-2.7l0,0L36.2,12.8l-0.3,0h0l0,0h0L36.2,12.8L36.2,12.8z M35.9,12.6
		L35.9,12.6L35.9,12.6L35.9,12.6z M22.6,18c-0.1,0.1-0.1,0.3,0,0.5c0.1,0.3,0.5,0.4,0.8,0.3l5.4-2.4c-0.8,2.1-2.4,4.2-3.5,5.6
		l-0.5,0.7c-1.7,2.3-4.6,5.4-5.7,6.5c-1.1-1.1-4-4.2-5.7-6.5L12.8,22c-1.7-2.3-4.6-6-3.9-8.9c0.3-1.1,1.1-2,2.5-2.7
		c0.7-0.3,1.4-0.5,2.1-0.5c1.1,0,2.1,0.4,3.1,1.3c1.2,1,1.9,2.4,2,2.5c0.2,0.4,0.9,0.4,1.1,0c0,0,0.7-1.4,2-2.5
		c1.6-1.4,3.4-1.7,5.2-0.8c1.4,0.7,2.2,1.6,2.5,2.7c0.1,0.5,0.1,1.1,0,1.8l-6.4,2.7C22.8,17.7,22.7,17.8,22.6,18z"/>
</g>
</svg>
