<svg version="1.1" xmlns="http://www.w3.org/2000/svg" xmlns:xlink="http://www.w3.org/1999/xlink" x="0px" y="0px"
	 viewBox="0 0 40 40" style="enable-background:new 0 0 40 40;" xml:space="preserve">
<g>
	<g id="path-3_12_" class="st3">
		<path class="st0" d="M5,39.5c-2.5,0-4.5-2-4.5-4.5V5c0-2.5,2-4.5,4.5-4.5h30c2.5,0,4.5,2,4.5,4.5v30c0,2.5-2,4.5-4.5,4.5H5z"/>
		<path class="st1" d="M35,1c2.2,0,4,1.8,4,4v30c0,2.2-1.8,4-4,4H5c-2.2,0-4-1.8-4-4V5c0-2.2,1.8-4,4-4H35 M35,0H5C2.2,0,0,2.2,0,5
			v30c0,2.8,2.2,5,5,5h30c2.8,0,5-2.2,5-5V5C40,2.2,37.8,0,35,0L35,0z"/>
	</g>
	<path class="st4" d="M30.8,13c0.9-2.5-1-4.2-1.5-4.7c0-0.1-0.1-0.2-0.1-0.3c-0.4-1-0.5-2.2-0.5-2.2c0-0.2-0.1-0.3-0.3-0.4
		c-0.2-0.1-0.4-0.1-0.5,0c-0.2,0.1-0.8,0-1.3-0.1c-0.8-0.1-1.7-0.3-2.7-0.1c-1.1-0.6-2.8-0.9-4,0.1c-1.2-0.5-2.4,0-3,0.8
		c-0.9,1.2-0.3,2.5,0.7,3.4c-0.3,0.8-1,2.4-1.3,4.2c-0.6,3.1-0.1,5.4,1.4,6.7l-4.3,7.4c0-0.4,0-0.8-0.1-1.2c-0.4-2.6-1.6-4.7-3.6-6
		c-0.1-0.1-0.3-0.1-0.4-0.1c-0.2,0-0.3,0.1-0.3,0.3c0,0.1-0.7,1.4-0.6,3.3c0.1,1.7,0.7,4.2,3.7,6.1l-2.4,4c-0.1,0.1-0.1,0.3-0.1,0.4
		c0,0.1,0.1,0.3,0.3,0.3c0.1,0,0.2,0.1,0.3,0.1c0.2,0,0.4-0.1,0.5-0.3l4.3-7.5c2.6,1.3,5.3,1.5,7.6,0.5c1.9-0.8,2.9-2.1,2.9-2.1
		c0.1-0.1,0.1-0.3,0.1-0.5c0-0.2-0.2-0.3-0.3-0.4c-3.7-1.6-6.4-1.1-8.1-0.4c-0.2,0.1-0.4,0.2-0.6,0.3l2.2-3.8
		c1.8,0.8,4.1,0.3,6.6-1.5c1.5-1.1,2.8-2.4,3.3-3c1.1,0.4,2.6,0.3,3.2-0.9C32.1,14.9,31.8,14,30.8,13z M28.8,11.5
		c0.3-0.5,0.5-0.9,0.5-1.4c0,0,0.1,0.1,0.1,0.1c0.4,0.7,0.6,1.3,0.4,2C29.5,11.9,29.1,11.6,28.8,11.5z M23.2,16
		c1.3-0.5,2.7-0.4,4.2,0.2c-1.3,1.3-5.4,5.3-8.4,4C19.5,19.1,20.9,16.8,23.2,16z M27.8,13.3c-0.2,0.2-0.8,0.4-2.3,0.3
		c-0.4,0-0.8-0.1-1.1-0.1c-0.7,0-1.2,0.1-1.6,0.1c-0.2-0.5-0.6-1.2-1-1.7c-0.2-0.3-0.3-0.6-0.3-0.9c0,0,0-0.1,0-0.1
		c0.3,0.3,0.6,0.7,1,1c0.9,0.9,1.9,1.3,2.8,1.2c1-0.1,1.7-0.7,2.1-1.1c0.2,0,0.4,0.2,0.5,0.7C28,13.1,27.9,13.2,27.8,13.3z
		 M28.1,10.5c0-0.1,0-0.1,0-0.2c-0.1-0.6-0.4-1.2-1-1.7c-0.7-0.6-1.9-1-2.9-0.7c-0.6,0.2-1,0.6-1.2,1.2c-0.3,1,0.3,1.9,1.2,2.3
		c0.8,0.4,1.6,0.3,1.9-0.3c0.3-0.4,0.3-0.8,0.2-1c-0.1-0.5-0.5-0.7-0.6-0.8c-0.3-0.1-0.6,0-0.7,0.2c-0.1,0.1-0.1,0.3,0,0.4
		c0,0.1,0.1,0.2,0.3,0.3c0,0,0.1,0.1,0.1,0.1c0,0,0,0,0,0.1c0,0-0.3,0-0.6-0.1c-0.1-0.1-0.8-0.4-0.6-1c0.1-0.3,0.2-0.4,0.5-0.5
		c0.5-0.1,1.3,0.1,1.9,0.5c0.3,0.3,0.5,0.6,0.6,0.9c0,0.3-0.1,0.6-0.3,0.8c-0.2,0.2-0.7,0.7-1.4,0.8c-0.6,0-1.3-0.3-2-0.9
		c-0.6-0.5-1-1-1.3-1.4c-0.3-0.4-0.4-0.8-0.4-1.1c0-0.5,0.3-1,1-1.6c0.6-0.5,1.3-0.6,2-0.6c0.5,0,1.1,0.1,1.6,0.2
		c0.5,0.1,0.9,0.1,1.3,0.1c0.1,0.5,0.2,1.2,0.5,1.9C28.4,9.2,28.4,9.9,28.1,10.5z M22,6.1c-0.9,0.8-1.4,1.6-1.4,2.4c0,0,0,0.1,0,0.1
		c-0.3-0.3-0.6-0.6-0.7-1c-0.1-0.3,0-0.7,0.2-1c0.4-0.6,1-0.8,1.5-0.8c0.2,0,0.4,0,0.7,0.1C22.2,6,22.1,6.1,22,6.1z M18.9,8
		c0.3,1,1.2,1.7,1.9,2.2c-0.1,0.2-0.2,0.4-0.3,0.7c0,0.2,0,0.5,0,0.7c-0.5-0.9-1.2-1.8-2-2.5c-0.2-0.2-1.5-1.2-0.8-2.2
		c0.2-0.3,0.7-0.6,1.1-0.6c0.1,0,0.2,0,0.3,0C18.8,6.8,18.7,7.4,18.9,8z M18.3,10.3c1.9,1.9,2.5,5.1,2.6,5.7
		c-1.5,1.1-2.4,2.6-2.8,3.5C15.8,17.3,17.7,12,18.3,10.3z M22.8,15c-0.3,0.1-0.6,0.2-0.9,0.4c-0.1-0.5-0.3-1.2-0.6-2
		c-0.1-0.3-0.2-0.5-0.3-0.8c0.5,0.7,0.9,1.7,1,1.8c0.1,0.2,0.3,0.3,0.5,0.3l0.1,0c0,0,0.9-0.2,2.2-0.1C24.1,14.6,23.5,14.7,22.8,15z
		 M28.5,14.1c0.3-0.3,0.5-0.7,0.5-1.1c1.2,0.9,1.9,1.8,1.7,2.2h0c-0.5,1-2.1,0.3-2.2,0.3c-0.8-0.4-1.6-0.7-2.4-0.8
		C27,14.7,28,14.6,28.5,14.1z M15.5,26.7c0.4-0.3,1-0.8,1.9-1.1h0c1.9-0.8,4.1-0.7,6.5,0.2c-0.4,0.4-1.1,0.9-2,1.3
		C19.9,27.8,17.8,27.7,15.5,26.7z M12.2,29.3c-1.9-1.3-2.8-3-2.9-5c0-0.9,0.1-1.7,0.3-2.2C12.2,24.2,12.3,27.7,12.2,29.3z M9,21
		L9,21L9,21L9,21z M24.9,25.2L24.9,25.2L24.9,25.2L24.9,25.2z"/>
</g>
</svg>
