<svg version="1.1" xmlns="http://www.w3.org/2000/svg" xmlns:xlink="http://www.w3.org/1999/xlink" x="0px" y="0px" viewBox="0 0 40 40" style="enable-background:new 0 0 40 40;" xml:space="preserve">
	<g id="path-1_1_">
		<path class="st0" d="M5,39.5c-2.5,0-4.5-2-4.5-4.5V5c0-2.5,2-4.5,4.5-4.5h30c2.5,0,4.5,2,4.5,4.5v30c0,2.5-2,4.5-4.5,4.5H5z"/>
		<path class="st1" d="M35,1c2.2,0,4,1.8,4,4v30c0,2.2-1.8,4-4,4H5c-2.2,0-4-1.8-4-4V5c0-2.2,1.8-4,4-4H35 M35,0H5C2.2,0,0,2.2,0,5
			v30c0,2.8,2.2,5,5,5h30c2.8,0,5-2.2,5-5V5C40,2.2,37.8,0,35,0L35,0z"/>
	</g>
	<g>
		<path class="st1" d="M15.9,26.2c-0.3,0-0.5,0.2-0.5,0.5v1.9c0,0.3,0.2,0.5,0.5,0.5c0.3,0,0.5-0.2,0.5-0.5v-1.9
			C16.4,26.4,16.2,26.2,15.9,26.2z"/>
		<path class="st1" d="M20.2,26.6c-0.3,0-0.5,0.2-0.5,0.5v1.9c0,0.3,0.2,0.5,0.5,0.5c0.3,0,0.5-0.2,0.5-0.5v-1.9
			C20.7,26.8,20.4,26.6,20.2,26.6z"/>
		<path class="st1" d="M22.3,26.4c-0.3,0-0.5,0.2-0.5,0.5v1.9c0,0.3,0.2,0.5,0.5,0.5s0.5-0.2,0.5-0.5v-1.9
			C22.8,26.6,22.6,26.4,22.3,26.4z"/>
		<path class="st1" d="M18,26.2c-0.3,0-0.5,0.2-0.5,0.5v3.6c0,0.3,0.2,0.5,0.5,0.5s0.5-0.2,0.5-0.5v-3.6
			C18.5,26.4,18.3,26.2,18,26.2z"/>
		<path class="st1" d="M24.4,26.2c-0.3,0-0.5,0.2-0.5,0.5v3.6c0,0.3,0.2,0.5,0.5,0.5c0.3,0,0.5-0.2,0.5-0.5v-3.6
			C24.9,26.4,24.7,26.2,24.4,26.2z"/>
		<path class="st1" d="M27.8,14L27.8,14c-1.5-2.5-4.3-4.1-7.4-4.1S14.5,11.5,13,14l0,0c-5.4,0.8-8.5,2.3-8.5,4.1
			c0,1.8,2.8,3.2,7.7,4c1.7,1.2,4.8,2,8.2,2s6.4-0.8,8.2-2c5-0.8,7.7-2.3,7.7-4C36.3,16.3,33.2,14.8,27.8,14z M16,22.7L16,22.7
			c0.3,0,0.6,0,0.8,0.1l0.1,0c0.3,0,0.5,0,0.8,0c0.3,0,0.5,0,0.8,0l0.1,0c0.3,0,0.5,0,0.8,0l0.1,0c0.5,0,1.1,0,1.6,0l0.1,0
			c0.3,0,0.5,0,0.8,0l0.1,0c0.3,0,0.5,0,0.8,0c0.3,0,0.5,0,0.8,0l0.1,0c0.2,0,0.5,0,0.7-0.1l0.2,0c0.1,0,0.3,0,0.4,0
			c-1.4,0.4-3.1,0.6-4.8,0.6c-1.8,0-3.4-0.2-4.9-0.6C15.6,22.6,15.8,22.6,16,22.7z M28.2,21.2c-1.9,0.3-4.1,0.5-6.3,0.6
			c-1,0-2.1,0-3.1,0c-2.2-0.1-4.4-0.3-6.3-0.6c-4.8-0.8-7-2.1-7-3.1c0-0.5,0.7-1.2,2-1.7c1.2-0.5,3-1,5-1.3c0,0.1-0.1,0.2-0.1,0.3
			l0,0.1c0,0.1-0.1,0.2-0.1,0.3l0,0.1c0,0.1-0.1,0.2-0.1,0.4c0,0.1,0,0.2-0.1,0.4c0,0.1,0,0.2,0,0.3l0,0.1c0,0.1,0,0.2,0,0.4
			c0,0.1,0,0.2,0,0.4c0,0.2,0,0.3,0,0.5c0,0.2,0.1,0.3,0.3,0.4c2.6,1.1,5.8,1.5,8.1,1.6c0.1,0,0.3,0,0.4,0l0.4,0l1.4-0.1
			c0.1,0,0.2,0,0.3,0l3-0.6c0.2-0.1,0.4-0.1,0.6-0.2l1.1-0.4l0.1,0l0.3-0.1l0.1,0l0.2-0.1l0.1,0l0.1,0c0.2-0.1,0.3-0.2,0.3-0.4
			c0-0.2,0-0.4,0-0.5c0-0.1,0-0.2,0-0.4c0-0.1,0-0.2,0-0.3l0-0.1c0-0.1,0-0.2-0.1-0.4c0-0.1,0-0.2-0.1-0.4c0-0.1-0.1-0.2-0.1-0.3
			l0-0.1c0-0.1-0.1-0.2-0.1-0.3l0-0.1c0-0.1-0.1-0.2-0.1-0.3c2,0.3,3.7,0.8,5,1.3c1.3,0.6,2,1.2,2,1.7
			C35.3,19.1,33.1,20.5,28.2,21.2L28.2,21.2z M16.8,11.8c2.2-1.1,5-1.1,7.2,0C21.9,12.7,18.8,12.7,16.8,11.8z M15.8,12.4
			c1.3,0.7,2.9,1.1,4.6,1.1c1.7,0,3.3-0.4,4.6-1.1c0.8,0.6,1.4,1.3,1.9,2.1c0,0.1,0.1,0.2,0.1,0.2c0.4,0.7,0.6,1.4,0.7,2.2
			c0,0.3,0,0.5,0,0.8c0,0.1,0,0.1,0,0.2c-1.2,0.5-4.2,1.6-7.4,1.4c-2.9-0.2-5.5-0.7-7.4-1.4c0-0.1,0-0.1,0-0.2c0-0.4,0-0.8,0.1-1.2
			c0.1-0.6,0.3-1.3,0.7-1.8c0-0.1,0.1-0.2,0.1-0.2C14.3,13.7,15,13,15.8,12.4z M20.8,20.1L20.8,20.1L20.8,20.1L20.8,20.1z"/>
	</g>
</svg>
