<svg version="1.1" xmlns="http://www.w3.org/2000/svg" xmlns:xlink="http://www.w3.org/1999/xlink" x="0px" y="0px"
	 viewBox="0 0 40 40" style="enable-background:new 0 0 40 40;" xml:space="preserve">

	<g id="Thriller">
		<g id="path-3_1_" class="st3">
			<path class="st0" d="M5,39.5c-2.5,0-4.5-2-4.5-4.5V5c0-2.5,2-4.5,4.5-4.5h30c2.5,0,4.5,2,4.5,4.5v30c0,2.5-2,4.5-4.5,4.5H5z"/>
			<path class="st1" d="M35,1c2.2,0,4,1.8,4,4v30c0,2.2-1.8,4-4,4H5c-2.2,0-4-1.8-4-4V5c0-2.2,1.8-4,4-4H35 M35,0H5C2.2,0,0,2.2,0,5
				v30c0,2.8,2.2,5,5,5h30c2.8,0,5-2.2,5-5V5C40,2.2,37.8,0,35,0L35,0z"/>
		</g>
		<g class="st3">
			<path class="st1" d="M34.3,10.3L31,5.9c-0.2-0.2-0.5-0.3-0.7-0.3c-7.5,1.9-9.5-1.3-9.5-1.3c-0.1-0.2-0.4-0.4-0.6-0.4
				c-0.2,0-0.5,0.1-0.6,0.3c0,0-0.5,0.8-1.8,1.3c-1.3,0.6-3.7,1-7.7,0c-0.3-0.1-0.6,0-0.7,0.3l-3.4,4.4c-0.1,0.2-0.2,0.4-0.1,0.5
				c0,0.2,0.2,0.4,0.3,0.5c0,0,2.7,1.8,2.7,5.3c-0.1,3.7-1.7,6-1.7,6.1c-0.1,0.1-0.1,0.3-0.1,0.5c0,0.1,0.3,2.5,2.1,5.3
				c1.6,2.6,4.8,6,10.9,7.8c0.1,0,0.1,0,0.2,0s0.1,0,0.2,0c6.1-1.8,9.3-5.2,10.9-7.8c1.7-2.7,2-5,2.1-5.3c0-0.2,0-0.3-0.1-0.5
				c0,0-1.7-2.4-1.7-6.1c0-3.5,2.6-5.2,2.7-5.3c0.2-0.1,0.3-0.3,0.3-0.5C34.5,10.7,34.5,10.5,34.3,10.3z M31.9,23.2
				c-0.3,1.6-2.2,8.7-11.8,11.6c-5.6-1.7-8.5-4.8-9.9-7.1c-1.3-2-1.7-3.9-1.8-4.5c0.5-0.8,1.8-3.1,1.8-6.6c0-3.2-1.8-5.2-2.7-6
				l2.7-3.5c6.1,1.4,9-0.3,10-1.4c0.8,0.8,2.5,1.9,5.7,1.9c1.3,0,2.7-0.2,4.3-0.5l2.7,3.5c-1,0.8-2.8,2.8-2.7,6
				C30.1,20.1,31.4,22.4,31.9,23.2z"/>
			<path class="st1" d="M13.9,11.8h12.5c0.4,0,0.7-0.3,0.7-0.7s-0.3-0.7-0.7-0.7H13.9c-0.4,0-0.7,0.3-0.7,0.7S13.5,11.8,13.9,11.8z"
				/>
			<path class="st1" d="M25.4,27.8L25.4,27.8c-5.6,2.6-10.4,0-10.5,0c-0.3-0.2-0.8-0.1-0.9,0.3c-0.1,0.2-0.1,0.3-0.1,0.5
				s0.2,0.3,0.3,0.4c0.2,0.1,2.5,1.4,5.8,1.4c2,0,4-0.4,5.9-1.3c0.2-0.1,0.3-0.2,0.4-0.4c0.1-0.2,0.1-0.4,0-0.5
				C26.1,27.8,25.7,27.6,25.4,27.8z"/>
			<path class="st1" d="M26.4,17.3h-4.3l-1.3-4.1c-0.1-0.3-0.4-0.5-0.7-0.5s-0.6,0.2-0.7,0.5l-1.3,4.1h-4.3c-0.3,0-0.6,0.2-0.7,0.5
				c-0.1,0.3,0,0.6,0.3,0.8l3.5,2.5l-1.3,4.1c-0.1,0.3,0,0.6,0.3,0.8c0.1,0.1,0.3,0.1,0.4,0.1s0.3,0,0.4-0.1l3.5-2.5l3.5,2.5
				c0.2,0.2,0.6,0.2,0.8,0c0.2-0.2,0.3-0.5,0.3-0.8l-1.3-4.1l3.5-2.5c0.2-0.2,0.3-0.5,0.3-0.8C26.9,17.5,26.7,17.3,26.4,17.3z
				 M18.4,21.1c0.1-0.3,0-0.6-0.3-0.8L16,18.7h2.6c0.3,0,0.6-0.2,0.7-0.5l0.8-2.5l0.8,2.5c0.1,0.3,0.4,0.5,0.7,0.5h2.6l-2.1,1.6
				c-0.2,0.2-0.3,0.5-0.3,0.8l0.8,2.5L20.5,22c-0.2-0.2-0.6-0.2-0.8,0l-2.1,1.6L18.4,21.1z"/>
		</g>
	</g>
</svg>
