<svg version="1.1" xmlns="http://www.w3.org/2000/svg" xmlns:xlink="http://www.w3.org/1999/xlink" x="0px" y="0px"
	 viewBox="0 0 40 40" style="enable-background:new 0 0 40 40;" xml:space="preserve">
	<g id="path-3_6_" class="st3">
		<path class="st0" d="M5,39.5c-2.5,0-4.5-2-4.5-4.5V5c0-2.5,2-4.5,4.5-4.5h30c2.5,0,4.5,2,4.5,4.5v30c0,2.5-2,4.5-4.5,4.5H5z"/>
		<path class="st1" d="M35,1c2.2,0,4,1.8,4,4v30c0,2.2-1.8,4-4,4H5c-2.2,0-4-1.8-4-4V5c0-2.2,1.8-4,4-4H35 M35,0H5C2.2,0,0,2.2,0,5
			v30c0,2.8,2.2,5,5,5h30c2.8,0,5-2.2,5-5V5C40,2.2,37.8,0,35,0L35,0z"/>
	</g>
	<path class="st4" d="M33.9,31.4c0-0.1,0-0.1,0-0.2l0-1c0-1.3-0.3-2.3-1-2.9c-0.9-0.9-2.2-0.9-3.5-0.9c0,0-0.1,0-0.1,0
		c-2,0-7.4-0.9-7.8-4c0-0.3-0.1-0.8-0.1-1.2c-0.1-4,1.2-11.2,1.2-11.2c0-0.2-0.1-0.5-0.3-0.6c-1.4-0.8-3-1.3-4.5-1.6
		c0-0.9,0-1.8-0.6-2.4c-0.4-0.4-1-0.7-1.8-0.7c-0.6,0-1.1,0.2-1.5,0.6c-0.7,0.7-0.8,1.9-0.8,2.5c-0.1,0-0.1,0-0.2,0
		c-2.4,0.5-3.9,1.5-3.9,1.5C8.9,9.5,8.8,9.7,8.8,9.9c0,0-0.3,4.6-0.3,9.9c0,2.4,0,4.5,0.1,6.4l0,0l-1-0.6c-0.2-0.1-0.5-0.1-0.7,0.1
		s-0.3,0.4-0.2,0.6l0.3,0.9l-0.8,0.8c-0.2,0.2-0.2,0.4-0.1,0.6c0.1,0.2,0.3,0.3,0.6,0.3l0.8,0l-0.1,1.1c0,0.3,0.1,0.5,0.3,0.6
		c0.2,0.1,0.5,0,0.7-0.2L8.9,30c0.1,0.6,0.1,1.2,0.2,1.7c0,0,0,0.1,0,0.1C9.3,33,9.5,34,9.8,34.9c0.1,0.2,0.3,0.4,0.5,0.4h3.9
		c0.2,0,0.3-0.1,0.4-0.2c0.1-0.1,0.2-0.3,0.1-0.4c0-0.5,0-0.9,0-1.1l0.1,0l0.1,0c8.4,2.6,18.3,0.7,18.4,0.7c0.3-0.1,0.5-0.3,0.5-0.6
		C33.9,33.7,33.9,33.1,33.9,31.4z M8.5,28c-0.1-0.1-0.2-0.2-0.4-0.2c0.1-0.1,0.2-0.2,0.2-0.4c0.1,0.1,0.2,0.1,0.4,0.1
		c0,0.3,0,0.6,0.1,1c0,0,0,0-0.1,0l0,0C8.7,28.3,8.6,28.2,8.5,28z M20.7,31.1c-1.2-0.1-3-0.5-5.5-1.2c0,0,0,0,0,0c0-1.6,0-3.3,0-4.9
		c1.7-0.1,3.5-0.9,5.1-2.3c0,0,0,0,0,0.1c0.2,1.8,1.6,3.2,4,4.1c1.8,0.7,3.8,1,5.1,0.9c1.3,0,2.2,0.1,2.7,0.6
		c0.4,0.4,0.6,1.1,0.6,2.1l0,0.6C28.7,31.3,24.1,31.4,20.7,31.1z M20.3,21c-1.6,1.7-3.3,2.6-5,2.7c0.1-7.3,0.6-13,0.8-14.9
		c1.8,0.1,3.6,0.5,5.4,1.4C21.2,11.8,20.3,17.4,20.3,21z M14.2,23.7c-2.4-0.3-4.1-2.1-4.5-2.7c0-5.1,0.2-9.6,0.3-10.8
		c0.7-0.4,2.5-1.3,5-1.4C14.8,10.8,14.3,16.5,14.2,23.7z M14.1,29.6c-0.7-0.2-1.4-0.4-2-0.6c-1.3-0.4-1.9-0.6-2.2-0.6l-0.1-1.7
		c-0.1-1.2-0.1-2.6-0.1-4c0.9,0.8,2.5,1.9,4.5,2.2C14.1,26.5,14.1,28,14.1,29.6z M11.8,30.1c2.5,0.7,6.4,1.9,8.8,2.1
		c1.4,0.1,3,0.2,4.7,0.2c2.5,0,5-0.2,7.4-0.5l0,1.3c-2,0.3-10.2,1.5-17.4-0.7c-1.9-0.7-4.2-1.2-5.2-1.4c-0.1-0.5-0.1-1-0.2-1.6
		C10.4,29.7,11.2,29.9,11.8,30.1z M16.8,7.7c-0.4,0-0.8,0-1.1,0c0,0,0,0,0,0c0,0-0.1,0-0.1,0c-0.4,0-0.8,0-1.2,0.1
		c0-0.6,0.2-1.2,0.5-1.6v0C15,6,15.2,5.9,15.4,5.9c0.5,0,0.8,0.1,1,0.3C16.7,6.5,16.8,7.1,16.8,7.7z M13.7,33.2
		c-0.1,0.3-0.1,0.6-0.1,0.9h-2.9c-0.1-0.5-0.3-1.1-0.4-1.8C11.2,32.5,12.4,32.8,13.7,33.2z M9.3,31.7L9.3,31.7L9.3,31.7L9.3,31.7z"
		/>
</svg>
