<?xml version="1.0" encoding="utf-8"?>
<!-- Generator: Adobe Illustrator 20.1.0, SVG Export Plug-In . SVG Version: 6.00 Build 0)  -->
<svg version="1.1" id="Calque_1" xmlns="http://www.w3.org/2000/svg" xmlns:xlink="http://www.w3.org/1999/xlink" x="0px" y="0px"
	 viewBox="0 0 26.1 25.2" style="enable-background:new 0 0 26.1 25.2;" xml:space="preserve">
<path id="Stroke-1" d="M23.4,25.2H2.7C1.2,25.2,0,24,0,22.5V8.3c0-1.5,1.2-2.7,2.7-2.7h20.7c1.5,0,2.7,1.2,2.7,2.7v14.2
	C26.1,24,24.9,25.2,23.4,25.2z"/>
<polygon id="Stroke-3" points="2.7,22.2 18.7,22.2 18.7,8.6 2.7,8.6 "/>
<polyline id="Stroke-5" points="13.7,0 17.6,5.6 22.2,1.3 "/>
<path id="Stroke-6" d="M23.9,10c0,0.8-0.6,1.4-1.4,1.4S21,10.8,21,10s0.6-1.4,1.4-1.4S23.9,9.2,23.9,10z"/>
<path id="Stroke-7" d="M23.9,15c0,0.8-0.6,1.4-1.4,1.4S21,15.8,21,15c0-0.8,0.6-1.4,1.4-1.4S23.9,14.2,23.9,15z"/>
</svg>
