<svg width="38px" height="38px" viewBox="0 0 38 38" version="1.1" xmlns="http://www.w3.org/2000/svg" xmlns:xlink="http://www.w3.org/1999/xlink">
    <circle id="Background" fill="#E5E5E5" opacity="0.400000006" cx="19" cy="19" r="19"></circle>
    <path d="M19.3575317,19 L24.9259556,13.4315761 C25.0247489,13.3328839 25.0247489,13.1728125 24.9259556,13.0740191 C24.8273645,12.975327 24.6671919,12.975327 24.5684997,13.0740191 L19.0000758,18.6425442 L13.4315508,13.0740191 C13.3328586,12.975327 13.1726861,12.975327 13.074095,13.0740191 C12.9753017,13.1728125 12.9753017,13.3328839 13.074095,13.4315761 L18.64262,19 L13.074095,24.568525 C12.9753017,24.6672172 12.9753017,24.8272887 13.074095,24.9259809 C13.1234411,24.975327 13.1881573,25 13.2527723,25 C13.3174885,25 13.3822047,24.975327 13.4315508,24.9259809 L19.0000758,19.3574558 L24.5684997,24.9259809 C24.6178458,24.975327 24.682562,25 24.7472782,25 C24.8118933,25 24.8767106,24.975327 24.9259556,24.9259809 C25.0247489,24.8272887 25.0247489,24.6672172 24.9259556,24.568525 L19.3575317,19 Z" id="Fill-1" stroke="#D9D9D9" stroke-width="1.5" fill="#D9D9D9"></path>
</svg>