<?xml version="1.0" encoding="UTF-8" standalone="no"?>
<svg width="65px" height="65px" viewBox="0 0 65 65" version="1.1" xmlns="http://www.w3.org/2000/svg" xmlns:xlink="http://www.w3.org/1999/xlink">
    <!-- Generator: Sketch 41.2 (35397) - http://www.bohemiancoding.com/sketch -->
    <title>Button-Movie</title>
    <desc>Created with Sketch.</desc>
    <defs>
        <circle id="path-1" cx="22.5" cy="22.5" r="22.5"></circle>
        <filter x="-50%" y="-50%" width="200%" height="200%" filterUnits="objectBoundingBox" id="filter-2">
            <feOffset dx="0" dy="4" in="SourceAlpha" result="shadowOffsetOuter1"></feOffset>
            <feGaussianBlur stdDeviation="5" in="shadowOffsetOuter1" result="shadowBlurOuter1"></feGaussianBlur>
            <feColorMatrix values="0 0 0 0 0   0 0 0 0 0   0 0 0 0 0  0 0 0 0.1 0" type="matrix" in="shadowBlurOuter1"></feColorMatrix>
        </filter>
    </defs>
    <g id="Main" stroke="none" stroke-width="1" fill="none" fill-rule="evenodd">
        <g id="Main-Copy-2" transform="translate(-2.000000, -6.000000)">
            <g id="Button-Movie" transform="translate(12.000000, 12.000000)">
                <g id="button">
                    <use fill="black" fill-opacity="1" filter="url(#filter-2)" xlink:href="#path-1"></use>
                    <use fill="#F8F8F8" fill-rule="evenodd" xlink:href="#path-1"></use>
                </g>
                <g id="Clap" transform="translate(11.000000, 10.000000)" stroke-width="0.5" fill="#CA16A8">
                    <path d="M1.38057143,23.269 L22.3221429,23.269 L22.3221429,11.4288571 L1.38057143,11.4288571 L1.38057143,23.269 Z M4.74542857,4.87942857 L3.24857143,7.36642857 L1.28728571,7.85657143 L0.790285714,5.86785714 L4.74542857,4.87942857 Z M21.6038571,2.779 L17.7291429,3.74728571 L19.2222857,1.26671429 C19.2234286,1.26471429 19.224,1.26257143 19.2251429,1.26057143 L21.1068571,0.790285714 L21.6038571,2.779 Z M15.294,8.64685714 L18.916,8.64685714 L16.8761429,10.6867143 C16.8674286,10.6952857 16.8608571,10.7052857 16.8532857,10.7145714 L13.2261429,10.7145714 L15.294,8.64685714 Z M10.6618571,8.64685714 L14.284,8.64685714 L12.244,10.6867143 C12.2352857,10.6952857 12.2287143,10.7052857 12.2211429,10.7145714 L8.59414286,10.7145714 L10.6618571,8.64685714 Z M6.02971429,8.64685714 L9.65185714,8.64685714 L7.612,10.6867143 C7.60328571,10.6952857 7.59671429,10.7052857 7.58914286,10.7145714 L3.962,10.7145714 L6.02971429,8.64685714 Z M2.957,10.7145714 L1.38057143,10.7145714 L1.38057143,8.64685714 L5.01971429,8.64685714 L2.97985714,10.6867143 C2.97114286,10.6952857 2.96457143,10.7052857 2.957,10.7145714 L2.957,10.7145714 Z M18.2447143,1.50571429 L16.7478571,3.99257143 L13.2294286,4.87185714 L14.7262857,2.385 L18.2447143,1.50571429 Z M13.745,2.63028571 L12.2481429,5.11714286 L8.72971429,5.99657143 L10.2264286,3.50957143 L13.745,2.63028571 Z M9.24514286,3.75485714 L7.74842857,6.24171429 L4.22985714,7.12114286 L5.72671429,4.63414286 L9.24514286,3.75485714 Z M22.3221429,10.7145714 L17.8582857,10.7145714 L19.9261429,8.64685714 L22.3221429,8.64685714 L22.3221429,10.7145714 Z M23.0364286,8.28971429 C23.0364286,8.09242857 22.8765714,7.93257143 22.6792857,7.93257143 L3.92928571,7.93257143 L22.1235714,3.38528571 C22.2155714,3.36242857 22.2944286,3.30385714 22.3432857,3.22271429 C22.392,3.14142857 22.4064286,3.04414286 22.3834286,2.95228571 L21.7132857,0.270714286 C21.6654286,0.0791428571 21.4708571,-0.0372857143 21.2802857,0.0107142857 L0.270571429,5.26157143 C0.178571429,5.28442857 0.0997142857,5.343 0.0508571429,5.42414286 C0.00214285714,5.50542857 -0.0122857143,5.60271429 0.0107142857,5.69457143 L0.666285714,8.31785714 L0.666285714,23.6261429 C0.666285714,23.8234286 0.826142857,23.9832857 1.02342857,23.9832857 L22.6792857,23.9832857 C22.8765714,23.9832857 23.0364286,23.8234286 23.0364286,23.6261429 L23.0364286,8.28971429 Z" id="Fill-1" stroke="#C816A6"></path>
                    <path d="M9.54642857,18.235 L13.8902857,18.235 L13.8902857,14.12 L9.54642857,14.12 L9.54642857,18.235 Z M18.6345714,18.2348571 L14.6045714,18.2348571 L14.6045714,14.12 L18.6345714,14.12 C18.8318571,14.12 18.9917143,13.96 18.9917143,13.7628571 C18.9917143,13.5655714 18.8318571,13.4057143 18.6345714,13.4057143 L4.923,13.4057143 C4.72571429,13.4057143 4.56585714,13.5655714 4.56585714,13.7628571 C4.56585714,13.96 4.72571429,14.12 4.923,14.12 L8.83214286,14.12 L8.83214286,18.2348571 L4.923,18.2348571 C4.72571429,18.2348571 4.56585714,18.3947143 4.56585714,18.592 C4.56585714,18.7892857 4.72571429,18.9491429 4.923,18.9491429 L18.6345714,18.9491429 C18.8318571,18.9491429 18.9917143,18.7892857 18.9917143,18.592 C18.9917143,18.3947143 18.8318571,18.2348571 18.6345714,18.2348571 L18.6345714,18.2348571 Z" id="Fill-3" stroke="#C816A7"></path>
                    <path d="M18.6346143,20.6056286 L4.92304286,20.6056286 C4.72575714,20.6056286 4.5659,20.7654857 4.5659,20.9627714 C4.5659,21.1600571 4.72575714,21.3199143 4.92304286,21.3199143 L18.6346143,21.3199143 C18.8319,21.3199143 18.9917571,21.1600571 18.9917571,20.9627714 C18.9917571,20.7654857 18.8319,20.6056286 18.6346143,20.6056286" id="Fill-4" stroke="#C916A7"></path>
                </g>
            </g>
        </g>
    </g>
</svg>