<svg width="75px" height="75px" viewBox="0 0 75 75" version="1.1" xmlns="http://www.w3.org/2000/svg" xmlns:xlink="http://www.w3.org/1999/xlink">
    <circle id="Button-Copy-2" fill="#E5E5E5" cx="37.5" cy="37.5" r="37.5"></circle>
    <path d="M52.6066451,26.7460554 C50.7852003,24.9752168 48.4070867,24 45.9087356,24 C43.2170915,24 40.6163864,25.1647049 38.7732532,27.1961847 L37.3452435,28.7722082 L35.9153313,27.1954237 C34.0725786,25.1647049 31.4722541,24 28.7798489,24 C26.2818784,24 23.9030037,24.9752168 22.0804174,26.7464359 C18.1483492,30.5750086 17.9546757,37.0042864 21.6489325,41.0782804 C21.659206,41.0896953 21.6698599,41.1014908 21.6808944,41.1125252 L36.3395868,56.2605384 C36.6158285,56.545912 36.9773018,56.6878378 37.338014,56.6878378 C37.6991068,56.6878378 38.0605801,56.5455315 38.3360608,56.2609189 L53.0054072,41.1125252 C53.0160611,41.1014908 53.0267151,41.0896953 53.037369,41.0782804 C56.7323869,37.0065694 56.5390938,30.5776721 52.6066451,26.7460554 Z" id="Page-1-Copy" stroke="#C51DB0" stroke-width="2"></path>
</svg>