<?xml version="1.0" encoding="UTF-8" standalone="no"?>
<svg width="75px" height="75px" viewBox="0 0 75 75" version="1.1" xmlns="http://www.w3.org/2000/svg" xmlns:xlink="http://www.w3.org/1999/xlink">
    <!-- Generator: Sketch 41.2 (35397) - http://www.bohemiancoding.com/sketch -->
    <title>Button-Play</title>
    <desc>Created with Sketch.</desc>
    <defs></defs>
    <g id="Symbols" stroke="none" stroke-width="1" fill="none" fill-rule="evenodd">
        <g id="BottomBar-Alt-Copy-2" transform="translate(-99.000000, -11.000000)">
            <g id="Buttons">
                <g id="Button-Play" transform="translate(99.000000, 11.000000)">
                    <circle id="Button-Copy-3" fill="#E5E5E5" opacity="0.400000006" cx="37.5" cy="37.5" r="37.5"></circle>
                    <circle id="Button" fill="#C51DB0" cx="37.5" cy="37.5" r="31.5"></circle>
                    <path d="M29.0341876,22.4734126 L29.0341876,52.5266964 L52.0003908,37.4999511 L29.0341876,22.4734126 Z M28.5170938,54 C28.4327041,54 28.3481075,53.9793162 28.271164,53.9377419 C28.1040393,53.8473539 28,53.6727831 28,53.4829062 L28,21.5172028 C28,21.327326 28.1040393,21.1527551 28.271164,21.0623671 C28.437875,20.9719791 28.6409895,20.9802526 28.8002543,21.0844987 L53.2279714,37.0674539 C53.3739987,37.1628059 53.4619047,37.3255871 53.4619047,37.4999511 C53.4619047,37.674522 53.3739987,37.8373031 53.2279714,37.9326552 L28.8002543,53.9156103 C28.7146236,53.9716633 28.6159621,54 28.5170938,54 L28.5170938,54 Z" id="Fill-1" stroke="#F5F5F5" fill="#F5F5F5"></path>
                </g>
            </g>
        </g>
    </g>
</svg>