<?xml version="1.0" encoding="UTF-8" standalone="no"?>
<svg width="65px" height="65px" viewBox="0 0 65 65" version="1.1" xmlns="http://www.w3.org/2000/svg" xmlns:xlink="http://www.w3.org/1999/xlink">
    <!-- Generator: Sketch 41.2 (35397) - http://www.bohemiancoding.com/sketch -->
    <title>Button-Movie Copy</title>
    <desc>Created with Sketch.</desc>
    <defs>
        <circle id="path-1" cx="22.5" cy="22.5" r="22.5"></circle>
        <filter x="-50%" y="-50%" width="200%" height="200%" filterUnits="objectBoundingBox" id="filter-2">
            <feOffset dx="0" dy="4" in="SourceAlpha" result="shadowOffsetOuter1"></feOffset>
            <feGaussianBlur stdDeviation="5" in="shadowOffsetOuter1" result="shadowBlurOuter1"></feGaussianBlur>
            <feColorMatrix values="0 0 0 0 0   0 0 0 0 0   0 0 0 0 0  0 0 0 0.1 0" type="matrix" in="shadowBlurOuter1"></feColorMatrix>
        </filter>
    </defs>
    <g id="Main" stroke="none" stroke-width="1" fill="none" fill-rule="evenodd">
        <g id="Main-Copy" transform="translate(-2.000000, -6.000000)">
            <g id="Button-Movie-Copy" transform="translate(12.000000, 12.000000)">
                <g id="button">
                    <use fill="black" fill-opacity="1" filter="url(#filter-2)" xlink:href="#path-1"></use>
                    <use fill="#F8F8F8" fill-rule="evenodd" xlink:href="#path-1"></use>
                </g>
                <g id="Clap" transform="translate(10.000000, 8.000000)" stroke-width="1.2" stroke="#D518B4">
                    <g id="Page-1">
                        <path d="M23.7089427,25.490669 L3.03816742,25.490669 C1.52768427,25.490669 0.303279775,24.284508 0.303279775,22.796531 L0.303279775,8.56018621 C0.303279775,7.0722092 1.52768427,5.86604828 3.03816742,5.86604828 L23.7089427,5.86604828 C25.2194258,5.86604828 26.4438303,7.0722092 26.4438303,8.56018621 L26.4438303,22.796531 C26.4438303,24.284508 25.2194258,25.490669 23.7089427,25.490669 Z" id="Stroke-1"></path>
                        <polygon id="Stroke-3" stroke-linejoin="round" points="3.03370787 22.4797494 19.0004157 22.4797494 19.0004157 8.87726667 3.03370787 8.87726667"></polygon>
                        <polyline id="Stroke-5" stroke-linecap="round" stroke-linejoin="bevel" points="13.9550562 0.298850575 17.8988764 5.87749425 22.5001011 1.59377011"></polyline>
                        <path d="M24.219091,10.2966575 C24.219091,11.0805425 23.5738213,11.7161977 22.7780798,11.7161977 C21.9823382,11.7161977 21.3370685,11.0805425 21.3370685,10.2966575 C21.3370685,9.51277241 21.9823382,8.87711724 22.7780798,8.87711724 C23.5738213,8.87711724 24.219091,9.51277241 24.219091,10.2966575 Z" id="Stroke-6" stroke-linecap="round" stroke-linejoin="bevel"></path>
                        <path d="M24.219091,15.2911678 C24.219091,16.0750529 23.5738213,16.710708 22.7780798,16.710708 C21.9823382,16.710708 21.3370685,16.0750529 21.3370685,15.2911678 C21.3370685,14.5072828 21.9823382,13.8716276 22.7780798,13.8716276 C23.5738213,13.8716276 24.219091,14.5072828 24.219091,15.2911678 Z" id="Stroke-7" stroke-linecap="round" stroke-linejoin="bevel"></path>
                    </g>
                </g>
            </g>
        </g>
    </g>
</svg>