<?xml version="1.0" encoding="utf-8"?>
<!-- Generator: Adobe Illustrator 20.1.0, SVG Export Plug-In . SVG Version: 6.00 Build 0)  -->
<svg version="1.1" id="Calque_1" xmlns="http://www.w3.org/2000/svg" xmlns:xlink="http://www.w3.org/1999/xlink" x="0px" y="0px"
	 viewBox="0 0 24 25" style="enable-background:new 0 0 24 25;" xml:space="preserve">
<style type="text/css">
	.st0{stroke:#C816A6;}
	.st1{stroke:#C816A7;}
	.st2{stroke:#C916A7;}
</style>
<path id="Fill-1" class="st0" d="M1.9,23.8h20.9V11.9H1.9V23.8z M5.2,5.4L3.7,7.9l-2,0.5l-0.5-2L5.2,5.4z M22.1,3.3l-3.9,1l1.5-2.5
	c0,0,0,0,0,0l1.9-0.5L22.1,3.3z M15.8,9.1h3.6l-2,2c0,0,0,0,0,0h-3.6L15.8,9.1z M11.2,9.1h3.6l-2,2c0,0,0,0,0,0H9.1L11.2,9.1z
	 M6.5,9.1h3.6l-2,2c0,0,0,0,0,0H4.5L6.5,9.1z M3.5,11.2H1.9V9.1h3.6L3.5,11.2C3.5,11.2,3.5,11.2,3.5,11.2L3.5,11.2z M18.7,2
	l-1.5,2.5l-3.5,0.9l1.5-2.5L18.7,2z M14.2,3.1l-1.5,2.5L9.2,6.5L10.7,4L14.2,3.1z M9.7,4.3L8.2,6.7L4.7,7.6l1.5-2.5L9.7,4.3z
	 M22.8,11.2h-4.5l2.1-2.1h2.4V11.2z M23.5,8.8c0-0.2-0.2-0.4-0.4-0.4H4.4l18.2-4.5c0.1,0,0.2-0.1,0.2-0.2c0-0.1,0.1-0.2,0-0.3
	l-0.7-2.7c0-0.2-0.2-0.3-0.4-0.3l-21,5.3c-0.1,0-0.2,0.1-0.2,0.2c0,0.1-0.1,0.2,0,0.3l0.7,2.6v15.3c0,0.2,0.2,0.4,0.4,0.4h21.7
	c0.2,0,0.4-0.2,0.4-0.4V8.8z"/>
<path id="Fill-3" class="st1" d="M10,18.7h4.3v-4.1H10V18.7z M19.1,18.7h-4v-4.1h4c0.2,0,0.4-0.2,0.4-0.4c0-0.2-0.2-0.4-0.4-0.4H5.4
	c-0.2,0-0.4,0.2-0.4,0.4c0,0.2,0.2,0.4,0.4,0.4h3.9v4.1H5.4c-0.2,0-0.4,0.2-0.4,0.4c0,0.2,0.2,0.4,0.4,0.4h13.7
	c0.2,0,0.4-0.2,0.4-0.4C19.5,18.9,19.3,18.7,19.1,18.7L19.1,18.7z"/>
<path id="Fill-4" class="st2" d="M19.1,21.1H5.4c-0.2,0-0.4,0.2-0.4,0.4c0,0.2,0.2,0.4,0.4,0.4h13.7c0.2,0,0.4-0.2,0.4-0.4
	C19.5,21.3,19.3,21.1,19.1,21.1"/>
</svg>
