<?xml version="1.0" encoding="utf-8"?>
<!-- Generator: Adobe Illustrator 21.0.0, SVG Export Plug-In . SVG Version: 6.00 Build 0)  -->
<svg version="1.1" id="Calque_1" xmlns="http://www.w3.org/2000/svg" xmlns:xlink="http://www.w3.org/1999/xlink" x="0px" y="0px"
	 viewBox="0 0 48 48" style="enable-background:new 0 0 48 48;" xml:space="preserve">
<style type="text/css">
	.st0{fill:#FFFFFF;}
</style>
<path class="st0" d="M43,0H5C2.2,0,0,2.2,0,5v38c0,2.8,2.2,5,5,5h38c2.8,0,5-2.2,5-5V5C48,2.2,45.8,0,43,0z M34.7,16.7l-13.7,15
	c-0.2,0.2-0.5,0.3-0.7,0.3c0,0,0,0,0,0c-0.3,0-0.5-0.1-0.7-0.3L13.3,25c-0.4-0.4-0.4-1,0-1.4c0.4-0.4,1-0.4,1.4,0l5.6,5.9l12.9-14.2
	c0.4-0.4,1-0.4,1.4-0.1C35.1,15.6,35.1,16.3,34.7,16.7z"/>
</svg>
