<?xml version="1.0" encoding="utf-8"?>
<!-- Generator: Adobe Illustrator 21.0.0, SVG Export Plug-In . SVG Version: 6.00 Build 0)  -->
<svg version="1.1" id="Calque_1" xmlns="http://www.w3.org/2000/svg" xmlns:xlink="http://www.w3.org/1999/xlink" x="0px" y="0px"
	 viewBox="0 0 50 50" style="enable-background:new 0 0 50 50;" xml:space="preserve">
<g id="Fantasy">
	<g>
		<polygon points="33.4,39.2 33.5,39.1 22.6,18.2 		"/>
	</g>
	<g>
		<path d="M23.2,15.5C23,15.4,23,15.2,23.1,15l1.3-2.6l-2.6,1.4c-0.1,0.1-0.4,0-0.5-0.1l-2.1-2.1l0.5,2.9c0,0.2-0.1,0.4-0.3,0.4
			l-2.6,1.4l2.9,0.5c0.2,0,0.4,0.2,0.4,0.3l0.5,2.9l1.3-2.7c0.1-0.1,0.3-0.2,0.5-0.2l2.9,0.5L23.2,15.5z"/>
	</g>
	<g>
		<path d="M25,0C11.2,0,0,11.2,0,25s11.2,25,25,25s25-11.2,25-25S38.8,0,25,0z M34.5,39.3c0,0.1-0.1,0.2-0.2,0.3l-1,0.5
			c-0.1,0.1-0.1,0.1-0.2,0.1H33c-0.1,0-0.2-0.1-0.3-0.2L22.3,19.2L21,21.7c-0.1,0.2-0.2,0.3-0.4,0.3h-0.1c-0.2,0-0.4-0.2-0.4-0.4
			l-0.7-4l-4-0.6c-0.2,0-0.4-0.2-0.4-0.4c-0.1-0.2,0-0.4,0.2-0.5l3.6-1.9l-0.7-4c-0.1-0.2,0-0.4,0.2-0.5c0.1-0.1,0.4,0,0.5,0.1
			l2.9,2.9l3.6-1.8c0.1-0.1,0.4,0,0.5,0.1c0.2,0.1,0.2,0.3,0.1,0.5l-1.8,3.6L27,18c0.2,0.1,0.2,0.3,0.1,0.5
			c-0.1,0.1-0.3,0.2-0.5,0.2l-2.8-0.4l10.7,20.8C34.6,39.2,34.6,39.3,34.5,39.3z"/>
	</g>
</g>
</svg>
