<?xml version="1.0" encoding="utf-8"?>
<!-- Generator: Adobe Illustrator 21.0.0, SVG Export Plug-In . SVG Version: 6.00 Build 0)  -->
<svg version="1.1" id="Calque_1" xmlns="http://www.w3.org/2000/svg" xmlns:xlink="http://www.w3.org/1999/xlink" x="0px" y="0px"
	 viewBox="0 0 50 50" style="enable-background:new 0 0 50 50;" xml:space="preserve">
<g id="Love">
	<g>
		<path d="M11.2,24.8c1,0.9,2.3,2.1,4,3.8c1.7,1.7,4.2,2.5,6,2.9c1.9,0.4,3.5,0.4,3.5,0.4c0.2,0,1.7,0,3.6-0.4
			c1.8-0.4,4.3-1.2,6-2.9c1.7-1.7,3-3,4-3.9c-3.5,0.6-10.2,1.5-14,1.6C20.6,26.3,14.4,25.3,11.2,24.8z"/>
	</g>
	<g>
		<path d="M38,23.5c-1.9-0.8-4.8-2.1-6.8-3.5c-2.8-1.9-6.1,0-6.1,0c-0.2,0.1-0.5,0.1-0.7,0c0,0-3.3-1.9-6.1,0
			c-2,1.3-4.9,2.7-6.9,3.5c3.1,0.6,9.2,1.5,12.9,1.5S34.6,24,38,23.5z M26.8,20.5c0.1,0,2.3-0.9,4.7,0.6c0.3,0.2,0.4,0.5,0.2,0.8
			c-0.1,0.2-0.3,0.3-0.5,0.3c-0.1,0-0.2,0-0.3-0.1c-1.9-1.2-3.6-0.5-3.6-0.5c-0.3,0.2-0.7,0-0.8-0.3C26.3,21,26.5,20.6,26.8,20.5z"
			/>
	</g>
	<g>
		<path d="M25,0C11.2,0,0,11.2,0,25s11.2,25,25,25s25-11.2,25-25S38.8,0,25,0z M40.9,24L40.9,24c-0.1,0.1-0.1,0.2-0.1,0.2l-0.1,0.1
			c0,0-2,1.7-5.6,5.2c-1.9,1.9-4.6,2.8-6.6,3.2c-2,0.4-3.5,0.4-3.8,0.4c-0.7,0-6.8-0.1-10.4-3.7c-3.6-3.5-5.6-5.2-5.6-5.2l-0.1-0.1
			c-0.1,0-0.1-0.1-0.1-0.1v-0.1c0-0.1,0-0.2,0-0.2c0-0.1,0-0.2,0-0.2c0.1,0,0.1-0.1,0.1-0.1c0-0.1,0.1-0.1,0.1-0.1
			c0.1-0.1,0.2-0.1,0.2-0.1c0.1,0,5.6-2.1,8.7-4.2c2.9-2,6-0.7,7.1-0.2c1-0.5,4.1-1.8,7.1,0.2c3.1,2.1,8.6,4.2,8.7,4.2l0.1,0.1
			l0.1,0.1c0.1,0,0.1,0.1,0.1,0.1c0.1,0.1,0.1,0.2,0.1,0.2S40.9,23.8,40.9,24z"/>
	</g>
</g>
</svg>
