<?xml version="1.0" encoding="utf-8"?>
<!-- Generator: Adobe Illustrator 21.0.0, SVG Export Plug-In . SVG Version: 6.00 Build 0)  -->
<svg version="1.1" id="Calque_1" xmlns="http://www.w3.org/2000/svg" xmlns:xlink="http://www.w3.org/1999/xlink" x="0px" y="0px"
	 viewBox="0 0 50 50" style="enable-background:new 0 0 50 50;" xml:space="preserve">
<g id="Western">
	<g>
		<path d="M18.9,28.7c0.1-7.2,0.6-12.9,0.8-14.9c-2.5,0.1-4.3,1-5,1.4c-0.1,1.2-0.3,5.7-0.3,10.8C14.8,26.6,16.5,28.4,18.9,28.7z"/>
	</g>
	<g>
		<path d="M16.8,34c0.6,0.2,1.3,0.4,2,0.6c0-1.6,0-3.1,0.1-4.7c-2-0.3-3.6-1.4-4.5-2.2c0,1.4,0,2.8,0.1,4l0.1,1.7
			C14.9,33.4,15.5,33.6,16.8,34z"/>
	</g>
	<g>
		<path d="M20,28.7c1.7-0.1,3.4-1,5-2.7c0-3.6,0.9-9.2,1.2-10.8c-1.8-0.9-3.6-1.3-5.4-1.4C20.6,15.7,20.1,21.4,20,28.7z"/>
	</g>
	<g>
		<path d="M20.4,12.7c0.3,0,0.7,0,1.1,0c0-0.6-0.1-1.2-0.4-1.5c-0.2-0.2-0.5-0.3-1-0.3c-0.2,0-0.4,0.1-0.5,0.3
			c-0.3,0.4-0.5,1-0.5,1.6C19.5,12.7,19.9,12.7,20.4,12.7L20.4,12.7z"/>
	</g>
	<g>
		<path d="M13,32.4c0,0.2-0.1,0.3-0.2,0.4c0.2,0,0.3,0.1,0.4,0.2c0.1,0.2,0.2,0.3,0.2,0.5c0.1,0,0.1,0,0.1,0c-0.1-0.4-0.1-0.7-0.1-1
			C13.2,32.5,13.1,32.5,13,32.4z"/>
	</g>
	<g>
		<path d="M25.3,37.2c-2.4-0.2-6.3-1.4-8.8-2.1c-0.6-0.2-1.4-0.4-1.9-0.6c0.1,0.6,0.1,1.1,0.2,1.6c1,0.2,3.3,0.7,5.2,1.4
			c7.2,2.2,15.4,1,17.4,0.7v-1.3c-2.4,0.3-4.9,0.5-7.4,0.5C28.3,37.4,26.7,37.3,25.3,37.2z"/>
	</g>
	<g>
		<path d="M15.4,39.1h2.9c0-0.3,0-0.6,0.1-0.9c-1.3-0.4-2.5-0.7-3.4-0.9C15.1,38,15.3,38.6,15.4,39.1z"/>
	</g>
	<g>
		<path d="M25,0C11.2,0,0,11.2,0,25s11.2,25,25,25s25-11.2,25-25S38.8,0,25,0z M38.6,36.2c0,0.1,0,0.1,0,0.2c0,1.7,0,2.3-0.1,2.3
			c0,0.3-0.2,0.5-0.5,0.6c-0.1,0-10,1.9-18.4-0.7h-0.1h-0.1c0,0.2,0,0.6,0,1.1c0.1,0.1,0,0.3-0.1,0.4c-0.1,0.1-0.2,0.2-0.4,0.2H15
			c-0.2,0-0.4-0.2-0.5-0.4C14.2,39,14,38,13.8,36.8v-0.1c-0.1-0.5-0.1-1.1-0.2-1.7l-0.5,0.4c-0.2,0.2-0.5,0.3-0.7,0.2
			c-0.2-0.1-0.3-0.3-0.3-0.6l0.1-1.1h-0.8c-0.3,0-0.5-0.1-0.6-0.3c-0.1-0.2-0.1-0.4,0.1-0.6l0.8-0.8l-0.3-0.9
			c-0.1-0.2,0-0.4,0.2-0.6s0.5-0.2,0.7-0.1l1,0.6c-0.1-1.9-0.1-4-0.1-6.4c0-5.3,0.3-9.9,0.3-9.9c0-0.2,0.1-0.4,0.2-0.6
			c0,0,1.5-1,3.9-1.5c0.1,0,0.1,0,0.2,0c0-0.6,0.1-1.8,0.8-2.5c0.4-0.4,0.9-0.6,1.5-0.6c0.8,0,1.4,0.3,1.8,0.7
			c0.6,0.6,0.6,1.5,0.6,2.4c1.5,0.3,3.1,0.8,4.5,1.6c0.2,0.1,0.3,0.4,0.3,0.6c0,0-1.3,7.2-1.2,11.2c0,0.4,0.1,0.9,0.1,1.2
			c0.4,3.1,5.8,4,7.8,4h0.1c1.3,0,2.6,0,3.5,0.9c0.7,0.6,1,1.6,1,2.9V36.2z"/>
	</g>
	<g>
		<path d="M34.1,32.8c-1.3,0.1-3.3-0.2-5.1-0.9c-2.4-0.9-3.8-2.3-4-4.1c0-0.1,0-0.1,0-0.1c-1.6,1.4-3.4,2.2-5.1,2.3
			c0,1.6,0,3.3,0,4.9c2.5,0.7,4.3,1.1,5.5,1.2c3.4,0.3,8,0.2,12,0v-0.6c0-1-0.2-1.7-0.6-2.1C36.3,32.9,35.4,32.8,34.1,32.8z"/>
	</g>
</g>
</svg>
