<?xml version="1.0" encoding="utf-8"?>
<!-- Generator: Adobe Illustrator 21.0.0, SVG Export Plug-In . SVG Version: 6.00 Build 0)  -->
<svg version="1.1" id="Calque_1" xmlns="http://www.w3.org/2000/svg" xmlns:xlink="http://www.w3.org/1999/xlink" x="0px" y="0px"
	 viewBox="0 0 50 50" style="enable-background:new 0 0 50 50;" xml:space="preserve">
<g id="Adventure">
	<g>
		<path d="M24.7,25.8c4,0,6.2-1.3,6.2-2.2c-0.1-3.8-0.6-6-1.4-6.6c-0.3-0.2-0.7-0.2-1.4,0c-1.8,0.5-2.9,0.5-3.4,0.5s-1.6,0-3.4-0.5
			c-0.4-0.1-0.7-0.2-0.9-0.2c-0.2,0-0.4,0.1-0.5,0.2c-0.8,0.6-1.3,2.8-1.4,6.6C18.5,24.5,20.7,25.8,24.7,25.8z M21.7,18.2
			c0.1-0.3,0.4-0.3,0.7-0.2c0.1,0,2.3,1.2,4.5,0c0.3-0.1,0.6,0,0.7,0.2c0,0.1,0,0.3,0,0.4c0,0.1-0.1,0.2-0.2,0.3
			c-0.9,0.5-1.8,0.7-2.7,0.7c-1.6,0-2.8-0.7-2.8-0.7c-0.1-0.1-0.2-0.2-0.2-0.3C21.7,18.5,21.7,18.4,21.7,18.2z"/>
	</g>
	<g>
		<path d="M31.8,22c0.1,0.5,0.1,1,0.1,1.5v2.1c0,1.9-3.1,3.3-7.3,3.3s-7.3-1.4-7.3-3.3v-2c0-0.5,0.1-1,0.1-1.5c-4.6,1-7.6,3-7.6,5
			c0,1.5,1.5,2.9,4.2,4c2.9,1.2,6.7,1.8,10.7,1.8s7.8-0.7,10.5-1.9c2.7-1.1,4.2-2.5,4.2-4C39.4,25,36.4,23,31.8,22z"/>
	</g>
	<g>
		<path d="M24.7,27.9c4,0,6.2-1.4,6.2-2.3v-0.3c-1.2,0.9-3.6,1.5-6.2,1.5c-2.6,0-4.9-0.5-6.2-1.5v0.3C18.5,26.6,20.7,27.9,24.7,27.9
			z"/>
	</g>
	<g>
		<path d="M25,0C11.2,0,0,11.2,0,25s11.2,25,25,25s25-11.2,25-25S38.8,0,25,0z M35.8,32c-3,1.2-6.9,1.9-11.1,1.9
			c-4.2,0-8.1-0.7-11.1-1.9c-3.1-1.2-4.8-3-4.8-4.9c0-2.6,3.4-5,8.8-6.1c0.3-2.8,0.8-4.3,1.7-4.9c0.8-0.6,1.8-0.4,2.3-0.2
			c1.6,0.5,2.7,0.5,3.1,0.5c0.4,0,1.4,0,3.1-0.5c0.5-0.1,1.5-0.4,2.3,0.2c0.9,0.7,1.4,2.2,1.7,4.9c5.4,1.1,8.8,3.4,8.8,6.1
			C40.6,29,38.9,30.7,35.8,32z"/>
	</g>
</g>
</svg>
