<?xml version="1.0" encoding="utf-8"?>
<!-- Generator: Adobe Illustrator 21.0.0, SVG Export Plug-In . SVG Version: 6.00 Build 0)  -->
<svg version="1.1" id="Calque_1" xmlns="http://www.w3.org/2000/svg" xmlns:xlink="http://www.w3.org/1999/xlink" x="0px" y="0px"
	 viewBox="0 0 50 50" style="enable-background:new 0 0 50 50;" xml:space="preserve">
<g id="RomanticComedy">
	<g>
		<path d="M31.6,15.4c-1.8-0.9-3.6-0.6-5.2,0.8c-1.3,1.1-2,2.5-2,2.5c-0.2,0.4-0.9,0.4-1.1,0c-0.1-0.1-0.8-1.5-2-2.5
			c-1-0.9-2-1.3-3.1-1.3c-0.7,0-1.4,0.2-2.1,0.5c-1.4,0.7-2.2,1.6-2.5,2.7c-0.7,2.9,2.2,6.6,3.9,8.9l0.6,0.7
			c1.7,2.3,4.6,5.4,5.7,6.5c1.1-1.1,4-4.2,5.7-6.5L30,27c1.1-1.4,2.7-3.5,3.5-5.6l-5.4,2.4c-0.3,0.1-0.7,0-0.8-0.3
			c-0.1-0.2-0.1-0.4,0-0.5c0.1-0.2,0.2-0.3,0.4-0.4l6.4-2.7c0.1-0.7,0.1-1.3,0-1.8C33.8,17,33,16.1,31.6,15.4z"/>
	</g>
	<g>
		<path d="M25,0C11.2,0,0,11.2,0,25s11.2,25,25,25s25-11.2,25-25S38.8,0,25,0z M40.8,18.3L40.2,21c-0.1,0.3-0.4,0.5-0.7,0.4
			c-0.4-0.1-0.6-0.4-0.5-0.7l0.4-1.6L35,21c-0.7,2.5-2.7,5.2-4,6.9L30.9,28c-0.1,0.2-0.3,0.4-0.4,0.6c-2.2,2.9-6.3,7.1-6.3,7.1
			c-0.1,0.1-0.2,0.2-0.4,0.2c-0.1,0-0.3-0.1-0.4-0.2c0,0-4-4.1-6.2-7L14.1,30l-0.6,2.4c-0.1,0.3-0.4,0.5-0.7,0.4
			c-0.2-0.1-0.3-0.2-0.4-0.3c-0.1-0.2-0.1-0.3-0.1-0.5l0.4-1.6l-0.8,0.4l-0.6,2.4c-0.1,0.3-0.4,0.5-0.7,0.4
			c-0.2-0.1-0.3-0.1-0.4-0.3c-0.1-0.2-0.1-0.3-0.1-0.5l0.5-2.3l-2-1.2c-0.2-0.1-0.3-0.2-0.3-0.4c0-0.2,0-0.4,0.1-0.5
			c0.1-0.2,0.2-0.3,0.4-0.3s0.4,0,0.5,0.1l2.2,1.3l0.6-0.3l-1.4-0.8c-0.3-0.1-0.4-0.5-0.2-0.8c0.1-0.3,0.5-0.4,0.8-0.2l2.2,1.3
			l2.9-1.2c-1.9-2.5-4.8-6.4-4-9.7c0.4-1.5,1.4-2.7,3.1-3.5c4.1-2,7.1,1.4,8.2,3c1-1.6,4-5,8.2-3c1.7,0.9,2.7,2,3.1,3.5
			c0.1,0.5,0.1,1,0.1,1.5l3.7-1.6l-1.4-0.8c-0.2-0.1-0.3-0.2-0.3-0.4s0-0.3,0.1-0.5c0.1-0.2,0.2-0.3,0.4-0.3s0.4,0,0.5,0.1l2.7,1.7
			l0.1,0.3L40.8,18.3z"/>
	</g>
</g>
</svg>
