<?xml version="1.0" encoding="utf-8"?>
<!-- Generator: Adobe Illustrator 21.0.0, SVG Export Plug-In . SVG Version: 6.00 Build 0)  -->
<svg version="1.1" id="Calque_1" xmlns="http://www.w3.org/2000/svg" xmlns:xlink="http://www.w3.org/1999/xlink" x="0px" y="0px"
	 viewBox="0 0 50 50" style="enable-background:new 0 0 50 50;" xml:space="preserve">
<g id="Romance">
	<g>
		<path d="M32.5,18.3c0.1-0.1,0.2-0.2,0.1-0.6c-0.1-0.5-0.3-0.7-0.5-0.7c-0.4,0.4-1.1,1-2.1,1.1c-0.9,0.1-1.9-0.3-2.8-1.2
			c-0.4-0.3-0.7-0.7-1-1V16c0,0.3,0.1,0.6,0.3,0.9c0.4,0.5,0.8,1.2,1,1.7c0.4,0,0.9-0.1,1.6-0.1c0.3,0,0.7,0.1,1.1,0.1
			C31.7,18.7,32.3,18.5,32.5,18.3z"/>
	</g>
	<g>
		<path d="M27.3,19.7L27.3,19.7c-0.3,0-0.5-0.1-0.6-0.3c-0.1-0.1-0.5-1.1-1-1.8c0.1,0.3,0.2,0.5,0.3,0.8c0.3,0.8,0.5,1.5,0.6,2
			c0.3-0.2,0.6-0.3,0.9-0.4c0.7-0.3,1.3-0.4,2-0.4C28.2,19.5,27.3,19.7,27.3,19.7z"/>
	</g>
	<g>
		<path d="M26.9,14.5c0.3,0.4,0.6,0.8,1.2,1.3c-0.4-0.5-0.5-1-0.4-1.7c0.2-0.6,0.6-1,1.2-1.2c1-0.3,2.2,0.1,2.9,0.7
			c0.6,0.5,0.9,1.1,1,1.7c0,0.1,0,0.1,0,0.2c0.3-0.6,0.3-1.3,0.1-2.1c-0.3-0.7-0.4-1.4-0.5-1.9c-0.4,0-0.8,0-1.3-0.1
			c-0.5-0.1-1.1-0.2-1.6-0.2c-0.7,0-1.4,0.1-2,0.6c-0.7,0.6-1,1.1-1,1.6C26.5,13.7,26.6,14.1,26.9,14.5z"/>
	</g>
	<g>
		<path d="M14.3,27.1c-0.2,0.5-0.3,1.3-0.3,2.2c0.1,2,1,3.7,2.9,5C17,32.7,16.9,29.2,14.3,27.1z"/>
	</g>
	<g>
		<path d="M28.9,16.4c0.4,0.2,0.9,0.4,1.3,0.4c0.7-0.1,1.2-0.6,1.4-0.8s0.3-0.5,0.3-0.8c-0.1-0.3-0.3-0.6-0.6-0.9
			c-0.6-0.4-1.4-0.6-1.9-0.5c-0.3,0.1-0.4,0.2-0.5,0.5c-0.2,0.6,0.5,0.9,0.6,1c0.3,0.1,0.6,0.1,0.6,0.1c0-0.1,0-0.1,0-0.1L30,15.2
			c-0.2-0.1-0.3-0.2-0.3-0.3c-0.1-0.1-0.1-0.3,0-0.4c0.1-0.2,0.4-0.3,0.7-0.2c0.1,0.1,0.5,0.3,0.6,0.8c0.1,0.2,0.1,0.6-0.2,1
			C30.5,16.7,29.7,16.8,28.9,16.4z"/>
	</g>
	<g>
		<path d="M34.1,15.2L34,15.1c0,0.5-0.2,0.9-0.5,1.4c0.3,0.1,0.7,0.4,1,0.7C34.7,16.5,34.5,15.9,34.1,15.2z"/>
	</g>
	<g>
		<path d="M26.6,32.1c0.9-0.4,1.6-0.9,2-1.3c-2.4-0.9-4.6-1-6.5-0.2c-0.9,0.3-1.5,0.8-1.9,1.1C22.5,32.7,24.6,32.8,26.6,32.1z"/>
	</g>
	<g>
		<path d="M25.3,13.6L25.3,13.6c0-0.9,0.5-1.7,1.4-2.5c0.1,0,0.2-0.1,0.3-0.2c-0.3-0.1-0.5-0.1-0.7-0.1c-0.5,0-1.1,0.2-1.5,0.8
			c-0.2,0.3-0.3,0.7-0.2,1C24.7,13,25,13.3,25.3,13.6z"/>
	</g>
	<g>
		<path d="M25,0C11.2,0,0,11.2,0,25s11.2,25,25,25s25-11.2,25-25S38.8,0,25,0z M36.6,20.4c-0.6,1.2-2.1,1.3-3.2,0.9
			c-0.5,0.6-1.8,1.9-3.3,3c-2.5,1.8-4.8,2.3-6.6,1.5l-2.2,3.8c0.2-0.1,0.4-0.2,0.6-0.3c1.7-0.7,4.4-1.2,8.1,0.4
			c0.1,0.1,0.3,0.2,0.3,0.4c0,0.2,0,0.4-0.1,0.5c0,0-1,1.3-2.9,2.1c-2.3,1-5,0.8-7.6-0.5l-4.3,7.5c-0.1,0.2-0.3,0.3-0.5,0.3
			c-0.1,0-0.2-0.1-0.3-0.1c-0.2,0-0.3-0.2-0.3-0.3c0-0.1,0-0.3,0.1-0.4l2.4-4c-3-1.9-3.6-4.4-3.7-6.1c-0.1-1.9,0.6-3.2,0.6-3.3
			c0-0.2,0.1-0.3,0.3-0.3c0.1,0,0.3,0,0.4,0.1c2,1.3,3.2,3.4,3.6,6c0.1,0.4,0.1,0.8,0.1,1.2l4.3-7.4c-1.5-1.3-2-3.6-1.4-6.7
			c0.3-1.8,1-3.4,1.3-4.2c-1-0.9-1.6-2.2-0.7-3.4c0.6-0.8,1.8-1.3,3-0.8c1.2-1,2.9-0.7,4-0.1c1-0.2,1.9,0,2.7,0.1
			c0.5,0.1,1.1,0.2,1.3,0.1c0.1-0.1,0.3-0.1,0.5,0c0.2,0.1,0.3,0.2,0.3,0.4c0,0,0.1,1.2,0.5,2.2c0,0.1,0.1,0.2,0.1,0.3
			c0.5,0.5,2.4,2.2,1.5,4.7C36.5,19,36.8,19.9,36.6,20.4z"/>
	</g>
	<g>
		<path d="M23.2,14.1c0.8,0.7,1.5,1.6,2,2.5c0-0.2,0-0.5,0-0.7c0.1-0.3,0.2-0.5,0.3-0.7c-0.7-0.5-1.6-1.2-1.9-2.2
			c-0.2-0.6-0.1-1.2,0.2-1.7c-0.1,0-0.2,0-0.3,0c-0.4,0-0.9,0.3-1.1,0.6C21.7,12.9,23,13.9,23.2,14.1z"/>
	</g>
	<g>
		<path d="M33.7,18c0,0.4-0.2,0.8-0.5,1.1c-0.5,0.5-1.5,0.6-2.4,0.6c0.8,0.1,1.6,0.4,2.4,0.8c0.1,0,1.7,0.7,2.2-0.3
			C35.6,19.8,34.9,18.9,33.7,18z"/>
	</g>
	<g>
		<path d="M27.9,21c-2.3,0.8-3.7,3.1-4.2,4.2c3,1.3,7.1-2.7,8.4-4C30.6,20.6,29.2,20.5,27.9,21z"/>
	</g>
	<g>
		<path d="M25.6,21c-0.1-0.6-0.7-3.8-2.6-5.7c-0.6,1.7-2.5,7-0.2,9.2C23.2,23.6,24.1,22.1,25.6,21z"/>
	</g>
</g>
</svg>
