<?xml version="1.0" encoding="utf-8"?>
<!-- Generator: Adobe Illustrator 21.0.0, SVG Export Plug-In . SVG Version: 6.00 Build 0)  -->
<svg version="1.1" id="Calque_1" xmlns="http://www.w3.org/2000/svg" xmlns:xlink="http://www.w3.org/1999/xlink" x="0px" y="0px"
	 viewBox="0 0 50 50" style="enable-background:new 0 0 50 50;" xml:space="preserve">
<g id="Horror">
	<g>
		<path d="M27.7,26.7L28,31c0.6-0.3,1-0.9,1-1.6v-0.9C29,27.6,28.5,26.9,27.7,26.7z"/>
	</g>
	<g>
		<polygon points="25.3,26.6 25.3,31.2 26.9,31.2 26.5,26.6 		"/>
	</g>
	<g>
		<polygon points="22.5,31.2 24.1,31.2 24.1,26.6 22.9,26.6 		"/>
	</g>
	<g>
		<path d="M20.3,28.5v0.9c0,0.7,0.4,1.3,1,1.6l0.4-4.3C20.9,26.9,20.3,27.6,20.3,28.5z"/>
	</g>
	<g>
		<path d="M37.8,17.9c0,0.2-1.8,4-4.5,4.4c-1.3,0.2-2.5-0.4-3.6-1.8c-3.1-3.9-4.8-3.7-4.8-3.7h-0.2h-0.3c0.1,0-1.6-0.1-4.7,3.7
			c-1.1,1.4-2.3,2-3.6,1.8c-2.7-0.4-4.4-4.2-4.5-4.4c-0.3-0.6-0.6-1.1-0.8-1.4c0,0.1-1.3,8.2,4.5,15.6c0.1,0,4.7,5.9,9.4,5.9
			c4.7,0,9.3-5.8,9.4-5.9c5.9-7.5,4.5-15.5,4.5-15.6C38.4,16.8,38.1,17.3,37.8,17.9z M23.4,20h2.5c0.7,0,1.3,0.5,1.3,1.2
			s-0.5,1.2-1.2,1.2h-2.5c-0.7,0-1.2-0.5-1.2-1.2S22.8,20,23.4,20z M30.4,29.3c0,1.7-1.4,3.1-3.1,3.1h-5.1c-1.7,0-3.1-1.4-3.1-3.1
			v-0.9c0-1.6,1.4-3,3.1-3.1h5.1c1.7,0,3.1,1.4,3.1,3.1V29.3z"/>
	</g>
	<g>
		<path d="M25,0C11.2,0,0,11.2,0,25s11.2,25,25,25s25-11.2,25-25S38.8,0,25,0z M39.7,21.5c-0.4,2.9-1.5,7.2-4.7,11.3
			c0,0.1-1.2,1.6-3.1,3.2c-2.5,2.1-5,3.2-7.2,3.2c-2.2,0-4.7-1.1-7.2-3.2c-1.8-1.6-3-3.1-3.1-3.2c-3.2-4.2-4.3-8.4-4.7-11.3
			c-0.4-3,0-5.1,0-5.3c0-0.3,0.1-1.3,0.5-1.4c0.7-0.1,1.5,0.7,2.3,2.6c0.1,0.1,1.6,3.4,3.6,3.7c0.9,0.1,1.7-0.4,2.5-1.4
			c3.3-4,5.3-4.2,5.9-4.1c0.6-0.1,2.6,0.1,5.9,4.1c0.9,1,1.7,1.5,2.5,1.4c2.1-0.3,3.6-3.7,3.6-3.7c0.9-1.9,1.6-2.7,2.3-2.6
			c0.8,0.1,0.9,1.1,0.9,1.4C39.8,16.5,40.1,18.5,39.7,21.5z"/>
	</g>
</g>
</svg>
