<?xml version="1.0" encoding="utf-8"?>
<!-- Generator: Adobe Illustrator 21.0.0, SVG Export Plug-In . SVG Version: 6.00 Build 0)  -->
<svg version="1.1" id="Calque_1" xmlns="http://www.w3.org/2000/svg" xmlns:xlink="http://www.w3.org/1999/xlink" x="0px" y="0px"
	 viewBox="0 0 50 50" style="enable-background:new 0 0 50 50;" xml:space="preserve">
<g id="Gore">
	<g>
		<path d="M32.5,20.9v-0.1l1.4-2.2l0.5-1c0-0.1,0.1-0.2,0.1-0.3c0-0.2,0.1-0.3,0.1-0.4v-0.1c0-0.1,0.1-0.2,0.1-0.3l0.3-1.7
			c0-0.1,0-0.1,0-0.2c-1.3-0.2-2.3-0.4-3-0.6h-0.7c-1-0.3-1.9-0.4-2.5-0.7c-0.6-0.2-5.2-3-6.2-3.6c-0.1,0-0.2-0.1-0.3-0.1
			s-0.2,0-0.3,0c-0.1,0-0.2,0.2-0.2,0.2c-0.6,0.9-2,3.2-2.2,3.9c-0.1,0.3,0.4,0.6,0.7,0.7h0.1l4.6,2.8c0.6,0.3,0.8,0.4,1,0.5
			c0.1,0,0.2,0,0.3,0.1l0.1,0.1c0.2,0.1,0.6,0.3,0.8,0.6c0.2,0.1,2.2,2.7,3.2,4.7l0.1-0.1l0.1-0.1l1.7-1.8L32.5,20.9z"/>
	</g>
	<g>
		<path d="M36.1,15L36.1,15L36,15.8c-0.1,0.1-0.1,0.2-0.1,0.3l-0.5,1.6v0.1c0,0.2-0.1,0.3-0.1,0.4c-0.1,0.1-0.1,0.3-0.2,0.4
			l-1.2,2.1l-0.1,0.1l-1.5,1.9l-1.4,1.5c0.2,0.5,0.3,0.9,0.4,1.2c2-1.7,4.5-4.3,5.6-7.6c0.5-1.4,0.5-2.5,0.5-3.1
			c-0.4,0-0.8-0.1-1.3-0.1V15z"/>
	</g>
	<g>
		<path d="M25,0C11.2,0,0,11.2,0,25s11.2,25,25,25s25-11.2,25-25S38.8,0,25,0z M38.1,18.1c-1.2,3.9-4.3,6.9-6.6,8.7
			c-0.1,0.1-0.3,0.2-0.5,0.1c-0.2-0.1-0.3-0.2-0.4-0.4c-0.1-0.2-0.4-1.1-0.8-2.2c-0.7-1.7-3-4.8-3.3-5.1c-0.2-0.1-0.5-0.3-0.6-0.4
			l-0.1-0.1h-0.1c-0.2-0.1-0.3-0.2-0.6-0.3c-1,2.3-2.6,4.8-4.5,7.5c-1.4,2-3.6,6.2-4,9.5c-0.4,3.3-1.7,3.4-2.6,3.5
			c-0.2,0-0.3,0-0.4,0C13.4,39,13.2,39,13,39s-0.5-0.1-0.8-0.3c-0.2-0.1-0.3-0.2-0.5-0.3c-0.6-0.4-0.9-1.1-0.9-2.1
			c-0.1-2,1-5.5,2.7-8.9c0.9-1.7,2-3.4,3-4.9s1.8-2.7,2-3.4c0.3-1.2,0.8-3.3,1-4.2c-0.1,0-0.2-0.1-0.3-0.2c-0.5-0.4-0.7-1-0.5-1.6
			c0.3-0.8,2-3.7,2.2-4C21,9,21.2,8.6,21.8,8.4c0.5-0.1,1,0,1.5,0.3c1.4,0.8,5.6,3.3,6.1,3.6c0.5,0.2,1.3,0.4,2.3,0.6l0.5,0.1
			c0.8,0.2,1.8,0.4,3.4,0.6c0.9,0.1,1.7,0.1,2.3,0.1c0.3,0,0.5,0.1,0.6,0.4C38.5,14.1,38.8,15.7,38.1,18.1z"/>
	</g>
	<g>
		<path d="M19.6,19.5c-0.3,0.9-1.1,2.2-2.1,3.9c-1,1.4-2.1,3.1-2.9,4.7c-1.6,3.2-2.7,6.6-2.6,8.4c0,0.6,0.2,1.1,0.5,1.3
			s0.7,0.1,0.9,0.1c0.2-0.1,0.3-0.1,0.5-0.1c0.7-0.1,1.3-0.1,1.6-2.6c0.5-3.7,2.8-8.1,4.2-10c2-2.6,3.5-5.1,4.5-7.4l-3.6-2.2
			C20.3,16.6,19.9,18.4,19.6,19.5z"/>
	</g>
</g>
</svg>
