<?xml version="1.0" encoding="utf-8"?>
<!-- Generator: Adobe Illustrator 21.0.0, SVG Export Plug-In . SVG Version: 6.00 Build 0)  -->
<svg version="1.1" id="Calque_1" xmlns="http://www.w3.org/2000/svg" xmlns:xlink="http://www.w3.org/1999/xlink" x="0px" y="0px"
	 viewBox="0 0 50 50" style="enable-background:new 0 0 50 50;" xml:space="preserve">
<g id="Gangster">
	<g>
		<path d="M17.6,28.5c0.2,0,0.3,0,0.5-0.1c-0.2,0-0.3,0-0.4-0.1C17.7,28.3,17.6,28.4,17.6,28.5z"/>
	</g>
	<g>
		<path d="M18.8,27.6c0.1,0,0.2,0.2,0.2,0.3V28l0.1-0.1c0.2-0.3,0.4-0.6,0.5-1l-1,0.5C18.7,27.4,18.7,27.4,18.8,27.6z"/>
	</g>
	<g>
		<path d="M16.4,29.1L16.4,29.1c0.1-0.4,0.2-0.7,0.3-1c-1,0.1-2-0.2-2.7-0.9c-0.2,0.5-0.5,1.3-0.6,2.4c-0.3,1.8-0.2,4.5,1.5,7.6
			l3.6-1.9c-0.4-0.5-1-1.3-1.5-2.3C16.3,31.6,16.1,30.3,16.4,29.1z"/>
	</g>
	<g>
		<path d="M17.9,23.5c-0.1,0-0.3,0-0.4,0c-0.1-0.1-0.2-0.2-0.3-0.3c0-0.1,0-0.3,0-0.4c0.1-0.1,0.2-0.2,0.3-0.3l2.6-1.4l-0.6-1
			l-4.3,2.3c-0.6,0.4-1,0.9-1.2,1.5c-0.2,0.7-0.1,1.3,0.2,1.9c0.6,1.2,2.1,1.6,3.3,1l4.3-2.3l-1.3-2.4L17.9,23.5z"/>
	</g>
	<g>
		<path d="M25,0C11.2,0,0,11.2,0,25s11.2,25,25,25s25-11.2,25-25S38.8,0,25,0z M37.5,14.6l-3.7,2l0.4,0.7c0.2,0.2,0.1,0.6-0.2,0.7
			l-9.2,4.9c0,0.2-0.1,0.3-0.3,0.4l-1.8,0.9v0.1c0.2,0.2,0.1,0.6-0.2,0.7l-2,1.1c0,0.9-0.3,1.7-0.9,2.3c-0.2,0.2-0.5,0.4-0.8,0.6
			c-0.6,0.3-1.3,0.5-1.7,0.5c-0.1,0.9,0.1,1.9,0.6,2.9c0.7,1.5,1.8,2.5,1.8,2.5c0.2,0.2,0.2,0.3,0.2,0.5c0,0.2-0.2,0.3-0.3,0.4
			l-4.7,2.5c0,0.1-0.1,0.1-0.2,0.1c-0.2,0-0.4-0.1-0.5-0.3c-1.9-3.6-2.1-6.7-1.8-8.7c0.2-1.7,0.7-2.8,0.9-3.3
			c-0.3-0.5-0.4-1-0.4-1.6c-0.4-0.1-0.9-0.4-1.4-0.9c-0.1-0.2-0.1-0.5,0.1-0.7c0.1-0.1,0.3-0.1,0.4-0.1c0.2,0,0.3,0.1,0.4,0.2
			c0.3,0.3,0.6,0.4,0.8,0.5c0.3-0.8,0.9-1.6,1.7-2l4.9-2.8c0.1,0,0.3,0,0.4,0c0.1,0.1,0.2,0.2,0.3,0.3l0.1,0.2l1.8-0.9
			c0.2-0.2,0.6-0.1,0.7,0.2v0.1l11.7-6.2l-0.2-0.3c-0.2-0.2-0.1-0.6,0.2-0.7c0.1,0,0.3,0,0.4,0c0.1,0.1,0.2,0.2,0.3,0.3l0.2,0.3
			l0.7-0.3c0.2-0.2,0.6-0.1,0.7,0.2L38,14C38.2,14.2,38.1,14.5,37.5,14.6z"/>
	</g>
	<g>
		<polygon points="20.8,20.3 22.5,23.5 23.8,22.8 22.1,19.6 		"/>
	</g>
	<g>
		<polygon points="23.4,19.6 24,20.8 36.8,14 36.3,12.7 		"/>
	</g>
</g>
</svg>
