<?xml version="1.0" encoding="utf-8"?>
<!-- Generator: Adobe Illustrator 21.0.0, SVG Export Plug-In . SVG Version: 6.00 Build 0)  -->
<svg version="1.1" id="Calque_1" xmlns="http://www.w3.org/2000/svg" xmlns:xlink="http://www.w3.org/1999/xlink" x="0px" y="0px"
	 viewBox="0 0 50 50" style="enable-background:new 0 0 50 50;" xml:space="preserve">
<g id="Pirates">
	<g>
		<path d="M22,36.2c0.4,0,0.8,0,1.2-0.1c1.3-0.2,2.6-0.5,3.8-0.9c0.2-0.1,0.4-0.1,0.6-0.2c1.4-0.5,2.8-1.2,4.2-2h0.1
			c0.3-0.2,0.6-0.4,0.9-0.6c0-0.1,0-0.1,0-0.1c-0.4-1.1-1-2.1-1.8-2.9c-1.5-1.5-3.5-2.2-5.3-1.8c-0.2,0.1-0.4,0.1-0.6,0.2
			c-0.2,0.1-0.4,0.2-0.6,0.3c-1.7,0.8-2.7,2.6-3,4.7c-0.1,1.1,0.1,2.2,0.5,3.3V36.2z"/>
	</g>
	<g>
		<path d="M24.5,26.7c0.1-0.1,0.1-0.1,0.2-0.1l-1.4-4l0.5-0.2c3.1-1.4,4.6-5,3.4-8.2c-0.6-1.6-1.8-2.9-3.4-3.7
			c-1.6-0.7-3.4-0.8-5.1-0.2c-1.6,0.6-3,1.8-3.8,3.4c-0.7,1.6-0.8,3.4-0.2,5.1l0.1,0.1h0.1l0.1-0.1v-0.1c-0.6-1.6-0.5-3.3,0.2-4.8
			c0.8-1.6,2-2.7,3.6-3.3c0.6-0.3,1.4-0.4,2.1-0.4c1,0,1.9,0.2,2.7,0.6c1.6,0.8,2.7,2,3.3,3.6c0.6,1.6,0.5,3.3-0.2,4.8
			c-0.7,1.5-2,2.7-3.8,3.3l-0.1,0.1v0.1l1.5,4.1C24.4,26.7,24.4,26.7,24.5,26.7z"/>
	</g>
	<g>
		<path d="M25,0C11.2,0,0,11.2,0,25s11.2,25,25,25s25-11.2,25-25S38.8,0,25,0z M36.1,36.3c-2.2,1.5-4.4,2.7-6.6,3.5
			c-2.4,0.8-4.9,1.4-7.3,1.5c-0.3,0-0.5-0.2-0.6-0.4l-1.3-3.7c0-0.2,0-0.4,0.1-0.5c0.1-0.2,0.2-0.3,0.4-0.3c0.1,0,0.1,0,0.2,0
			c-0.4-1.2-0.6-2.5-0.5-3.7c0.2-2.3,1.4-4.3,3.1-5.4L22.1,23c-0.2-0.3-0.1-0.7,0-1c0.1-0.3,0.4-0.6,0.7-0.7
			c2.7-0.9,4.1-3.9,3.1-6.6c-0.5-1.3-1.4-2.3-2.7-2.9c-1.3-0.6-2.7-0.7-4-0.2c-1.3,0.5-2.3,1.4-2.9,2.7s-0.7,2.7-0.2,4
			c0.2,0.3,0.1,0.7,0,1c-0.1,0.3-0.4,0.6-0.7,0.7c-0.7,0.2-1.5-0.1-1.7-0.8c-0.7-1.9-0.6-4,0.3-5.9c0.9-1.9,2.5-3.3,4.4-4
			c4.1-1.4,8.5,0.7,10,4.7c1.3,3.6-0.2,7.5-3.5,9.4l1.1,3.1c2-0.3,4.2,0.6,5.8,2.2c0.9,0.9,1.5,1.9,2,3.1c0.1,0,0.1-0.1,0.2-0.1
			c0.1-0.1,0.3-0.2,0.5-0.1c0.2,0,0.3,0.1,0.4,0.3l1.3,3.7C36.2,35.8,36.2,36.1,36.1,36.3z"/>
	</g>
	<g>
		<path d="M32.4,34.1c-1.4,0.9-2.9,1.6-4.3,2.1c-0.2,0.1-0.4,0.1-0.6,0.2c-1.3,0.4-2.6,0.7-4,0.9c-0.7,0.1-1.3,0.1-1.9,0.3l0.9,2.6
			c2.1-0.1,4.4-0.6,6.5-1.4c1.9-0.7,3.9-1.7,5.9-3.1L34,33.1C33.5,33.5,32.9,33.8,32.4,34.1z"/>
	</g>
</g>
</svg>
