<?xml version="1.0" encoding="utf-8"?>
<!-- Generator: Adobe Illustrator 21.0.0, SVG Export Plug-In . SVG Version: 6.00 Build 0)  -->
<svg version="1.1" id="Calque_1" xmlns="http://www.w3.org/2000/svg" xmlns:xlink="http://www.w3.org/1999/xlink" x="0px" y="0px"
	 viewBox="0 0 50 50" style="enable-background:new 0 0 50 50;" xml:space="preserve">
<g id="Future">
	<g>
		<path d="M27.5,14.2c-0.8,0.7-1.5,1.5-2.1,2.4c-3.7,5.3-6.9,14.6-7.7,16.9l4.3,2.8c1.8-1.6,9.1-8.2,12.5-13.7
			c0.6-0.9,1.1-1.9,1.4-2.9c-1.7-0.3-3.3-0.9-4.8-1.9S28.4,15.6,27.5,14.2z M31.5,23.4c-0.5,0.7-1.2,1.2-2.1,1.4
			c-0.2,0.1-0.5,0.1-0.7,0.1c-0.6,0-1.3-0.1-1.8-0.5c-1.6-1-2-3.1-1-4.6c1-1.6,3.1-2,4.6-1S32.4,21.9,31.5,23.4z"/>
	</g>
	<g>
		<path d="M17.3,25.4c-1.3,1.6-3.1,4-4.1,5.3l4.1,0.5c0.6-1.9,1.7-4.6,2.9-7.4C19.4,23.9,18.3,24.2,17.3,25.4z"/>
	</g>
	<g>
		<path d="M29.8,19.8c-0.3-0.2-0.7-0.3-1.1-0.3c-0.8,0-1.4,0.3-1.8,0.9c-0.3,0.5-0.4,1.1-0.3,1.6c0.1,0.6,0.4,1,0.9,1.3
			s1.1,0.4,1.6,0.3c0.5-0.1,1-0.4,1.3-0.9C31,21.8,30.8,20.5,29.8,19.8z"/>
	</g>
	<g>
		<path d="M24.4,35.9l2.1,3.5c0.8-1.4,2.3-4.1,3.2-5.9c0.6-1.4,0.5-2.6,0.3-3.3C27.9,32.5,25.8,34.5,24.4,35.9z"/>
	</g>
	<g>
		<path d="M25,0C11.2,0,0,11.2,0,25s11.2,25,25,25s25-11.2,25-25S38.8,0,25,0z M21.1,38.6l-1.3,2c-0.1,0.2-0.3,0.3-0.5,0.3
			c-0.1,0-0.2,0-0.3-0.1c-0.3-0.2-0.4-0.6-0.2-0.9l1.3-2c0.2-0.3,0.6-0.4,0.9-0.2c0.1,0,0.2,0.2,0.2,0.4
			C21.2,38.3,21.2,38.5,21.1,38.6z M35.3,23.4c-1,1.8-2.6,3.8-4.6,6c0.3,0.8,0.9,2.6-0.2,4.8c-1.2,2.3-3.4,6.1-3.8,6.8
			c-0.1,0.2-0.3,0.3-0.5,0.3s-0.4-0.1-0.5-0.3l-2.5-4.2c-0.5,0.5-0.9,0.8-0.9,0.8c-0.2,0.1-0.5,0.2-0.7,0L19.2,36
			c0.1,0.1,0.2,0.2,0.2,0.3c0,0.2,0,0.4-0.1,0.5l-2.5,3.8c-0.1,0.2-0.3,0.3-0.5,0.3c-0.1,0-0.2,0-0.3-0.1c-0.2-0.1-0.3-0.2-0.3-0.4
			c0-0.1,0-0.3,0.1-0.4l2.6-3.7c0.1-0.2,0.2-0.3,0.4-0.3c0.1-0.1,0.2,0,0.3,0l-1.7-1.1c0.1,0.2,0.1,0.5,0,0.7l-1.3,2
			c-0.1,0.2-0.3,0.3-0.5,0.3c-0.1,0-0.2,0-0.3-0.1c-0.3-0.2-0.4-0.6-0.2-0.9l1.3-2c0.1-0.2,0.4-0.3,0.6-0.3l-0.3-0.2
			c-0.2-0.1-0.3-0.4-0.2-0.7c0-0.1,0.2-0.5,0.4-1.2l-4.8-0.7c-0.2-0.1-0.4-0.2-0.5-0.4c-0.1-0.2,0-0.4,0.1-0.6c0,0,2.9-4,4.8-6.2
			c1.6-1.9,3.5-2.1,4.4-2.1c1.2-2.7,2.4-4.9,3.6-6.6c4.3-6.3,11.8-7,12.1-7s0.5,0.1,0.6,0.4C37.3,9.6,39.6,16.7,35.3,23.4z"/>
	</g>
	<g>
		<path d="M28.5,13.4c0.8,1.4,1.9,2.5,3.4,3.4c1.3,0.9,2.8,1.5,4.4,1.7c0.9-3.7,0.2-7.1-0.1-8.3C34.9,10.4,31.5,11.1,28.5,13.4z"/>
	</g>
</g>
</svg>
