<?xml version="1.0" encoding="utf-8"?>
<!-- Generator: Adobe Illustrator 21.0.0, SVG Export Plug-In . SVG Version: 6.00 Build 0)  -->
<svg version="1.1" id="Calque_1" xmlns="http://www.w3.org/2000/svg" xmlns:xlink="http://www.w3.org/1999/xlink" x="0px" y="0px"
	 viewBox="0 0 50 50" style="enable-background:new 0 0 50 50;" xml:space="preserve">
<g id="Comedy">
	<g>
		<path d="M22.3,33.8c-0.1-0.3-0.3-0.4-0.4-0.5l-1.1,2.9c0.6,0.1,1.2,0.2,1.9,0.3l0.4-2c-0.5-0.3-0.7-0.5-0.8-0.6V33.8z"/>
	</g>
	<g>
		<path d="M20,32.2c-0.1,0-0.2-0.1-0.3-0.2c-0.5,0.4-1.3,1.3-1.8,2.9c0.2,0.2,0.8,0.5,1.8,0.8l1.1-3C20.5,32.6,20.3,32.4,20,32.2z"
			/>
	</g>
	<g>
		<path d="M16.4,15.8c0.9,0,1.7,0.1,2.6,0.3c0.7,0.2,1.3,0.3,1.9,0.5c0.1-0.5,0.2-1,0.2-1.4c0.1-1-1.5-1.6-2-1.7
			C18.4,13.3,15.6,13,15,13c-0.8,0-2.6,0.2-3.6,1c-0.4,0.4-0.3,1.5,0.1,2.4C12.9,16.1,14.6,15.8,16.4,15.8z"/>
	</g>
	<g>
		<path d="M31,16.1c2.6-0.5,5.5-0.1,7.5,0.4c0.4-1,0.6-2.1,0.1-2.5c-1-0.8-2.8-1-3.6-1c-0.7,0-3.4,0.3-4.1,0.5
			c-0.4,0.1-2.1,0.7-2,1.7c0,0.4,0.1,0.9,0.2,1.4C29.6,16.4,30.3,16.3,31,16.1z"/>
	</g>
	<g>
		<path d="M24.4,34.7l-0.3,1.7c0.3,0,0.6,0,0.9,0c0.4,0,0.9,0,1.3,0l-0.5-1.7C25.3,34.7,24.9,34.8,24.4,34.7z"/>
	</g>
	<g>
		<path d="M22.9,18.6c-0.3-0.1-0.6-0.2-0.9-0.3c-0.6-0.2-1.4-0.5-3.2-0.9c-3.3-0.7-7.3,0.4-8.6,0.9c0,0.9,0,2.8,0.6,4.8
			c0.7,2.2,4,2.3,5.3,2.3h0.1c0,0,0.2,0,0.3,0C18,25.5,22,25.8,22.9,18.6z"/>
	</g>
	<g>
		<path d="M31.2,17.4c-1.8,0.4-2.6,0.7-3.1,0.9c-0.3,0.1-0.6,0.2-0.9,0.3c0.9,7.2,4.9,6.9,6.4,6.8c0.1,0,0.2,0,0.3,0H34
			c1.3,0,4.7-0.1,5.3-2.3c0.5-1.9,0.6-3.9,0.6-4.8C38.5,17.8,34.5,16.7,31.2,17.4z"/>
	</g>
	<g>
		<path d="M25,0C11.2,0,0,11.2,0,25s11.2,25,25,25s25-11.2,25-25S38.8,0,25,0z M40.5,23.5c-0.9,3.1-5.1,3.2-6.5,3.2h-0.1
			c-0.1,0-0.2,0-0.3,0c-0.3,0-0.6,0-0.9,0c-1.3,0-2.5-0.3-3.5-1c0.2,0.5,0.4,0.9,0.5,1.2c0.1,0.3,0.3,0.5,0.4,0.8
			c0.5,0.9,1.1,2,0.9,3.1c0.6,0.6,1.9,1.8,2.5,4.2l-0.1,0.1l-0.2,0.3c-0.1,0.1-1.9,2.1-8.1,2.2h-0.2h-0.2c-6.2-0.2-8-2.1-8.1-2.2
			l-0.2-0.3l0.1-0.3c0.6-2.4,1.9-3.7,2.5-4.2c-0.2-1.1,0.4-2.2,0.9-3.1c0.2-0.3,0.3-0.6,0.4-0.8c0.1-0.2,0.3-0.7,0.5-1.2
			c-1,0.7-2.1,1-3.5,1c-0.4,0-0.7,0-0.9,0c-0.1,0-0.2,0-0.3,0H16c-0.7,0-2,0-3.3-0.4c-1.7-0.5-2.7-1.4-3.1-2.8
			c-0.8-2.8-0.7-5.6-0.7-5.7v-0.4l0.4-0.1c0,0,0.4-0.1,1-0.3c-0.1-0.3-0.2-0.6-0.3-1c-0.4-1.6,0.1-2.4,0.6-2.8
			c1.3-1,3.5-1.2,4.3-1.2c0.7-0.1,3.7,0.2,4.8,0.5c1.1,0.2,3.2,1.2,3,3.1c-0.1,0.5-0.2,1.2-0.3,1.7c0.1,0.1,0.1,0.1,0.2,0.1
			c0.7,0.3,1,0.4,2.6,0.4c1.6,0,1.9-0.1,2.6-0.4c0.1-0.1,0.1-0.1,0.2-0.1c-0.1-0.5-0.2-1.2-0.3-1.7c-0.2-1.8,1.9-2.8,3-3.1
			c0.9-0.2,3.8-0.5,4.5-0.5c0.8,0,3,0.2,4.3,1.3c0.5,0.4,0.9,1.2,0.6,2.8c-0.1,0.4-0.2,0.7-0.3,1c0.6,0.2,1,0.3,1,0.3l0.4,0.1v0.4
			C41.2,17.9,41.3,20.6,40.5,23.5z"/>
	</g>
	<g>
		<path d="M30.9,35.5c0.6-0.2,1-0.4,1.2-0.6c-0.5-1.7-1.3-2.6-1.8-3C30.2,32,30.1,32,30,32.1c-0.2,0.2-0.3,0.3-0.5,0.4L30.9,35.5z"
			/>
	</g>
	<g>
		<path d="M28.4,27.4c-0.7-1.5-2-5.7-2-5.7c-0.3-0.9-0.5-1.9-0.6-3c-0.5,0-1.3,0-1.8,0c-0.1,1.1-0.3,2.1-0.6,3c0,0.2-1.3,4.2-2,5.7
			c-0.1,0.3-0.2,0.6-0.4,0.9c-0.9,1.7-1,2.3-0.3,2.9c0.6,0.5,0.9,0.6,1.2,0.7c0.5,0.2,0.8,0.3,1.4,1.1c0,0,0.6,0.5,1.7,0.5
			s1.6-0.5,1.7-0.6c0.5-0.7,0.9-0.9,1.4-1.1c0.3-0.2,0.6-0.3,1.2-0.7c0.7-0.5,0.6-1.1-0.5-2.8C28.7,28,28.5,27.7,28.4,27.4z"/>
	</g>
	<g>
		<path d="M27.7,33.8c-0.1,0-0.3,0.3-0.7,0.5l0.6,2c0.7-0.1,1.4-0.2,2-0.4l-1.2-2.8C28.2,33.2,28.1,33.3,27.7,33.8z"/>
	</g>
</g>
</svg>
